<svg width="2232" height="1282" viewBox="0 0 2232 1282" fill="none" xmlns="http://www.w3.org/2000/svg">
<g clip-path="url(#clip0_9_30)">
<rect width="2232" height="1282" fill="#1E1E1E"/>
<path d="M2082.01 -2L865.794 500.435L809 649.304L1523.28 1282H2257V-2H2082.01Z" fill="#EF8F00" fill-opacity="0.8"/>
<ellipse cx="581.454" cy="657" rx="300" ry="296" fill="#824F36"/>
<rect x="299.454" y="759" width="220" height="344" fill="#824F36"/>
<ellipse cx="422.454" cy="396.5" rx="72" ry="69.5" fill="#424141"/>
<ellipse cx="350.454" cy="481.5" rx="72" ry="69.5" fill="#424141"/>
<ellipse cx="332.454" cy="567.5" rx="72" ry="69.5" fill="#424141"/>
<ellipse cx="332.454" cy="643" rx="81" ry="78" fill="#424141"/>
<ellipse cx="404.954" cy="695" rx="39.5" ry="38" fill="#424141"/>
<ellipse cx="354.954" cy="738" rx="39.5" ry="38" fill="#424141"/>
<ellipse cx="308.954" cy="721" rx="39.5" ry="38" fill="#424141"/>
<ellipse cx="432.454" cy="579.5" rx="62" ry="59.5" fill="#424141"/>
<ellipse cx="528.454" cy="491.5" rx="134" ry="128.5" fill="#424141"/>
<ellipse cx="607.454" cy="498.5" rx="134" ry="128.5" fill="#424141"/>
<ellipse cx="508.454" cy="348.5" rx="72" ry="69.5" fill="#424141"/>
<ellipse cx="617.954" cy="370" rx="94.5" ry="91" fill="#424141"/>
<ellipse cx="741.454" cy="412.5" rx="89" ry="85.5" fill="#424141"/>
<ellipse cx="822.454" cy="457.5" rx="64" ry="61.5" fill="#424141"/>
<rect x="243.454" y="542" width="251" height="76" rx="24" fill="#3D3D3D"/>
<ellipse cx="457.954" cy="644" rx="50.5" ry="50" fill="#824F36"/>
<path d="M458.454 579.5C458.454 529.518 498.972 489 548.954 489H780.454C804.202 489 823.454 508.252 823.454 532V627C823.454 650.748 804.202 670 780.454 670H548.954C498.972 670 458.454 629.482 458.454 579.5Z" fill="#868686"/>
<path d="M550.454 579.5C550.454 529.518 590.972 489 640.954 489H872.454C896.202 489 915.454 508.252 915.454 532V627C915.454 650.748 896.202 670 872.454 670H640.954C590.972 670 550.454 629.482 550.454 579.5Z" fill="#D9D9D9"/>
<circle cx="508.954" cy="579.5" r="14.5" fill="#D9D9D9"/>
<circle cx="616.454" cy="817" r="36" fill="#1E1E1E"/>
<path d="M519.454 1013C518.287 1043 472.654 1074.2 299.454 959C265.287 984.333 185.054 1053.7 137.454 1128.5C89.8537 1203.3 103.287 1261.67 115.954 1281.5H814.954L519.454 1013Z" fill="#D9D9D9"/>
<rect x="1288.5" y="631.5" width="433" height="167" rx="52.5" stroke="white" stroke-width="9"/>
<path d="M1365.31 759.25C1363.98 759.083 1361.79 759 1358.75 759H1351.88C1350.75 759 1349.73 759.042 1348.81 759.125L1348.75 759C1348.92 758.708 1349 758.375 1349 758C1349 757.625 1348.96 757.229 1348.88 756.812C1348.83 756.396 1348.67 755.646 1348.38 754.562C1348.08 753.479 1347.62 751.917 1347 749.875L1344.38 741.5L1321.12 675.625C1323.71 675.792 1327 675.875 1331 675.875C1335 675.875 1337.56 675.708 1338.69 675.375L1357.5 732.188L1374 675.625C1376.5 675.792 1379.58 675.875 1383.25 675.875C1388.25 675.875 1391.17 675.708 1392 675.375L1369.19 741.312C1369.19 741.312 1368.46 743.75 1367 748.625C1365.79 752.792 1365.19 755.5 1365.19 756.75C1365.19 757.958 1365.27 758.729 1365.44 759.062L1365.31 759.25ZM1403.19 675.438C1408.98 674.688 1414.92 674.312 1421 674.312C1432.33 674.312 1440.94 676.979 1446.81 682.312C1452.73 687.604 1455.69 695.542 1455.69 706.125C1455.69 715.583 1452.46 723.062 1446 728.562C1439.96 733.729 1432.19 736.312 1422.69 736.312C1421.6 736.312 1420.42 736.25 1419.12 736.125V759H1403.19V675.438ZM1422.88 689.375C1421.62 689.375 1420.38 689.417 1419.12 689.5V722.375C1420.46 722.542 1422.08 722.625 1424 722.625C1425.92 722.625 1427.92 722.229 1430 721.438C1432.08 720.604 1433.83 719.458 1435.25 718C1438.21 714.958 1439.69 710.958 1439.69 706C1439.69 694.917 1434.08 689.375 1422.88 689.375ZM1469.06 759C1469.31 757.583 1469.44 756.042 1469.44 754.375V675.875H1481.94L1515.06 728V680.125C1515.06 677.833 1514.85 676.417 1514.44 675.875H1531.31C1531.1 677.542 1531 679.375 1531 681.375V759H1518L1485.38 708.938V759H1469.06Z" fill="white"/>
<circle cx="1625.5" cy="714.5" r="62.5" fill="white"/>
<circle cx="1964.5" cy="312.5" r="62.5" fill="white"/>
<circle cx="1791.34" cy="1105.9" r="46.5" transform="rotate(39.7309 1791.34 1105.9)" fill="white"/>
<path d="M2062.41 276.706C2062.81 277.26 2063.16 277.84 2063.45 278.448L2063 278.662C2063.14 278.954 2063.26 279.252 2063.37 279.556C2063.48 279.861 2063.57 280.17 2063.65 280.483L2064.13 280.363C2064.29 281.016 2064.39 281.687 2064.42 282.373L2063.93 282.398C2063.96 283.032 2063.93 283.683 2063.85 284.349L2064.35 284.409C2064.27 285.061 2064.14 285.725 2063.96 286.401L2063.48 286.273C2063.32 286.888 2063.11 287.515 2062.87 288.152L2063.33 288.333C2063.1 288.945 2062.82 289.566 2062.51 290.195L2062.06 289.974C2061.78 290.553 2061.46 291.14 2061.11 291.734L2061.54 291.988C2061.21 292.556 2060.84 293.13 2060.45 293.708L2060.04 293.429C2059.68 293.967 2059.29 294.51 2058.88 295.058L2059.28 295.358C2058.88 295.886 2058.47 296.419 2058.03 296.955L2057.64 296.638C2057.22 297.147 2056.78 297.659 2056.33 298.175L2056.7 298.507C2056.26 299.008 2055.8 299.512 2055.32 300.019L2054.96 299.675C2054.51 300.151 2054.04 300.63 2053.56 301.111L2053.91 301.465C2053.44 301.936 2052.95 302.409 2052.45 302.883L2052.11 302.521C2051.62 302.98 2051.12 303.442 2050.61 303.905L2050.95 304.276C2050.45 304.721 2049.95 305.166 2049.43 305.613L2049.11 305.235C2048.6 305.672 2048.09 306.111 2047.56 306.55L2047.88 306.934C2047.36 307.363 2046.84 307.792 2046.3 308.222L2045.99 307.832C2045.47 308.248 2044.94 308.666 2044.4 309.084L2044.71 309.479C2044.17 309.892 2043.63 310.306 2043.08 310.72L2042.78 310.32C2042.25 310.719 2041.71 311.119 2041.16 311.518L2041.45 311.922C2040.91 312.321 2040.35 312.719 2039.79 313.118L2039.5 312.71C2038.96 313.094 2038.41 313.478 2037.85 313.862L2038.13 314.274C2037.57 314.657 2037.01 315.041 2036.44 315.424L2036.16 315.009C2035.6 315.38 2035.04 315.751 2034.48 316.122L2034.75 316.54C2034.18 316.911 2033.61 317.281 2033.03 317.651L2032.76 317.229C2032.2 317.588 2031.63 317.947 2031.05 318.305L2031.32 318.73C2030.74 319.088 2030.16 319.446 2029.57 319.804L2029.31 319.377C2028.74 319.724 2028.17 320.071 2027.59 320.418L2027.84 320.847C2027.26 321.195 2026.67 321.542 2026.08 321.888L2025.82 321.456C2025.25 321.792 2024.66 322.128 2024.08 322.463L2024.33 322.898C2023.74 323.234 2023.14 323.569 2022.54 323.904L2022.3 323.468C2021.72 323.795 2021.13 324.121 2020.53 324.447L2020.77 324.885C2020.18 325.21 2019.58 325.535 2018.98 325.858L2018.74 325.418C2018.15 325.736 2017.55 326.054 2016.95 326.371L2017.18 326.813C2016.59 327.128 2015.99 327.442 2015.38 327.755L2015.15 327.311C2014.55 327.621 2013.95 327.93 2013.34 328.239L2013.57 328.684C2012.97 328.989 2012.36 329.293 2011.75 329.596L2011.53 329.148C2010.92 329.45 2010.31 329.752 2009.7 330.052L2009.92 330.502C2009.31 330.796 2008.71 331.09 2008.1 331.384L2007.88 330.933C2007.27 331.226 2006.66 331.517 2006.04 331.808L2006.25 332.26C2005.64 332.548 2005.03 332.835 2004.41 333.12L2004.2 332.667C2003.59 332.95 2002.97 333.232 2002.36 333.513L2002.56 333.968C2001.95 334.249 2001.33 334.529 2000.7 334.807L2000.5 334.351C1999.88 334.625 1999.27 334.898 1998.65 335.17L1998.85 335.628C1998.23 335.9 1997.6 336.172 1996.97 336.442L1996.78 335.983C1996.16 336.249 1995.54 336.515 1994.91 336.779L1995.11 337.24C1994.48 337.503 1993.86 337.766 1993.23 338.027L1993.04 337.565C1992.41 337.825 1991.79 338.084 1991.16 338.341L1991.34 338.804C1990.72 339.059 1990.09 339.313 1989.46 339.565L1989.28 339.101C1988.65 339.354 1988.02 339.605 1987.38 339.854L1987.57 340.319C1986.94 340.567 1986.31 340.813 1985.68 341.058L1985.49 340.592C1984.86 340.836 1984.23 341.078 1983.6 341.319L1983.78 341.787C1983.14 342.028 1982.5 342.268 1981.87 342.506L1981.69 342.038C1981.06 342.273 1980.43 342.507 1979.79 342.74L1979.96 343.209C1979.33 343.442 1978.69 343.674 1978.05 343.904L1977.88 343.434C1977.56 343.549 1977.24 343.664 1976.92 343.778C1976.6 343.892 1976.27 344.006 1975.95 344.119L1976.12 344.59C1975.48 344.817 1974.84 345.041 1974.2 345.263L1974.03 344.79C1973.39 345.011 1972.75 345.23 1972.12 345.447L1972.28 345.92C1971.63 346.139 1970.99 346.356 1970.34 346.57L1970.18 346.096C1969.54 346.31 1968.9 346.522 1968.26 346.731L1968.41 347.206C1967.76 347.417 1967.12 347.624 1966.48 347.83L1966.32 347.353C1965.68 347.56 1965.03 347.765 1964.38 347.967L1964.53 348.444C1963.88 348.646 1963.24 348.846 1962.59 349.043L1962.45 348.564C1961.79 348.763 1961.14 348.96 1960.5 349.153L1960.64 349.632C1959.99 349.827 1959.34 350.019 1958.69 350.208L1958.55 349.728C1957.9 349.918 1957.25 350.105 1956.6 350.289L1956.74 350.77C1956.08 350.957 1955.42 351.142 1954.77 351.323L1954.64 350.841C1953.98 351.022 1953.33 351.201 1952.68 351.376L1952.81 351.859C1952.15 352.037 1951.5 352.213 1950.84 352.385L1950.71 351.902C1950.06 352.075 1949.4 352.245 1948.75 352.412L1948.87 352.896C1948.21 353.065 1947.56 353.231 1946.9 353.394L1946.78 352.908C1946.12 353.073 1945.46 353.234 1944.8 353.393L1944.92 353.879C1944.26 354.038 1943.61 354.194 1942.95 354.346L1942.84 353.86C1942.17 354.015 1941.51 354.168 1940.85 354.317L1940.96 354.805C1940.29 354.954 1939.63 355.101 1938.98 355.244L1938.87 354.756C1938.2 354.901 1937.54 355.043 1936.88 355.182L1936.98 355.671C1936.31 355.811 1935.65 355.948 1934.99 356.082L1934.89 355.591C1934.22 355.726 1933.56 355.857 1932.9 355.985L1932.99 356.475C1932.32 356.605 1931.65 356.732 1930.99 356.855L1930.9 356.363C1930.23 356.486 1929.57 356.606 1928.91 356.722L1929 357.214C1928.32 357.333 1927.65 357.449 1926.98 357.56L1926.9 357.067C1926.23 357.178 1925.57 357.286 1924.91 357.39L1924.99 357.884C1924.31 357.991 1923.63 358.094 1922.96 358.194L1922.89 357.699C1922.22 357.798 1921.55 357.894 1920.89 357.985L1920.96 358.48C1920.28 358.574 1919.6 358.664 1918.93 358.75L1918.86 358.254C1918.19 358.34 1917.52 358.422 1916.86 358.499L1916.92 358.996C1916.23 359.076 1915.56 359.151 1914.88 359.222L1914.83 358.725C1914.16 358.796 1913.49 358.863 1912.82 358.926L1912.87 359.423C1912.19 359.488 1911.5 359.548 1910.83 359.603L1910.79 359.104C1910.11 359.159 1909.45 359.21 1908.78 359.255L1908.82 359.754C1908.13 359.801 1907.45 359.843 1906.77 359.881L1906.74 359.381C1906.06 359.418 1905.39 359.45 1904.73 359.477L1904.75 359.977C1904.06 360.005 1903.38 360.027 1902.7 360.044L1902.69 359.544C1902.01 359.56 1901.34 359.572 1900.67 359.577L1900.67 360.077C1899.99 360.082 1899.31 360.082 1898.64 360.075L1898.64 359.575C1897.96 359.568 1897.28 359.555 1896.61 359.535L1896.6 360.035C1895.92 360.015 1895.24 359.988 1894.58 359.954L1894.61 359.455C1893.92 359.42 1893.24 359.378 1892.57 359.328L1892.53 359.827C1891.85 359.775 1891.17 359.716 1890.51 359.649L1890.56 359.152C1889.88 359.084 1889.22 359.007 1888.57 358.923L1888.5 359.419C1887.81 359.329 1887.13 359.23 1886.47 359.122L1886.55 358.628C1885.87 358.517 1885.21 358.396 1884.57 358.265L1884.47 358.755C1883.79 358.618 1883.13 358.469 1882.49 358.31L1882.61 357.825C1881.94 357.66 1881.3 357.484 1880.68 357.296L1880.53 357.774C1879.87 357.572 1879.22 357.357 1878.6 357.128L1878.78 356.659C1878.13 356.42 1877.51 356.166 1876.92 355.898L1876.72 356.353C1876.08 356.062 1875.47 355.754 1874.9 355.429L1875.15 354.995C1874.56 354.656 1874 354.3 1873.49 353.926L1873.19 354.33C1872.63 353.919 1872.11 353.485 1871.64 353.029L1871.98 352.669C1871.5 352.203 1871.07 351.714 1870.7 351.203L1870.29 351.5C1869.88 350.947 1869.54 350.366 1869.25 349.758L1869.7 349.544C1869.56 349.252 1869.44 348.954 1869.33 348.65C1869.22 348.345 1869.13 348.036 1869.05 347.723L1868.57 347.843C1868.4 347.19 1868.31 346.519 1868.27 345.833L1868.77 345.808C1868.74 345.174 1868.77 344.523 1868.85 343.857L1868.35 343.797C1868.43 343.145 1868.56 342.481 1868.73 341.805L1869.22 341.933C1869.38 341.318 1869.58 340.691 1869.83 340.054L1869.36 339.873C1869.6 339.261 1869.88 338.64 1870.19 338.011L1870.63 338.233C1870.92 337.653 1871.24 337.066 1871.59 336.472L1871.16 336.218C1871.49 335.65 1871.86 335.076 1872.24 334.498L1872.66 334.777C1873.02 334.239 1873.41 333.696 1873.82 333.148L1873.42 332.848C1873.82 332.32 1874.23 331.787 1874.67 331.251L1875.06 331.568C1875.48 331.059 1875.91 330.547 1876.37 330.031L1876 329.699C1876.44 329.198 1876.9 328.694 1877.38 328.188L1877.74 328.531C1878.19 328.055 1878.66 327.576 1879.14 327.095L1878.79 326.741C1879.26 326.27 1879.75 325.797 1880.25 325.323L1880.59 325.686C1881.08 325.226 1881.58 324.764 1882.09 324.301L1881.75 323.93C1882.25 323.485 1882.75 323.04 1883.27 322.593L1883.59 322.971C1884.1 322.534 1884.61 322.095 1885.14 321.656L1884.82 321.272C1885.34 320.844 1885.86 320.414 1886.4 319.984L1886.71 320.374C1887.23 319.958 1887.76 319.54 1888.3 319.122L1887.99 318.727C1888.52 318.314 1889.07 317.9 1889.62 317.486L1889.92 317.886C1890.45 317.487 1890.99 317.088 1891.54 316.688L1891.25 316.284C1891.79 315.885 1892.35 315.487 1892.91 315.088L1893.2 315.496C1893.74 315.112 1894.29 314.728 1894.85 314.344L1894.57 313.932C1895.13 313.549 1895.69 313.165 1896.26 312.782L1896.54 313.197C1897.09 312.826 1897.66 312.455 1898.22 312.084L1897.95 311.666C1898.52 311.295 1899.09 310.925 1899.67 310.555L1899.94 310.977C1900.5 310.618 1901.07 310.259 1901.65 309.901L1901.38 309.476C1901.96 309.118 1902.54 308.76 1903.12 308.402L1903.38 308.829C1903.96 308.482 1904.53 308.135 1905.11 307.788L1904.86 307.359C1905.44 307.011 1906.03 306.664 1906.62 306.318L1906.88 306.75C1907.45 306.414 1908.03 306.078 1908.62 305.743L1908.37 305.308C1908.96 304.972 1909.56 304.637 1910.16 304.302L1910.4 304.738C1910.98 304.411 1911.57 304.085 1912.17 303.759L1911.93 303.321C1912.52 302.996 1913.12 302.671 1913.72 302.348L1913.96 302.788C1914.55 302.47 1915.15 302.152 1915.75 301.835L1915.51 301.393C1916.11 301.078 1916.71 300.764 1917.32 300.451L1917.55 300.895C1918.15 300.585 1918.75 300.276 1919.36 299.967L1919.13 299.522C1919.73 299.217 1920.34 298.913 1920.95 298.61L1921.17 299.058C1921.78 298.756 1922.39 298.454 1923 298.154L1922.78 297.705C1923.39 297.41 1923.99 297.116 1924.6 296.822L1924.82 297.273C1925.43 296.981 1926.04 296.689 1926.66 296.398L1926.45 295.946C1927.06 295.658 1927.67 295.371 1928.29 295.086L1928.5 295.539C1929.11 295.256 1929.72 294.974 1930.34 294.693L1930.14 294.238C1930.75 293.957 1931.37 293.677 1932 293.399L1932.2 293.855C1932.82 293.581 1933.43 293.308 1934.05 293.036L1933.85 292.578C1934.47 292.306 1935.1 292.034 1935.72 291.764L1935.92 292.223C1936.54 291.957 1937.16 291.691 1937.79 291.427L1937.59 290.967C1938.21 290.703 1938.84 290.44 1939.47 290.179L1939.66 290.641C1940.29 290.381 1940.91 290.122 1941.54 289.865L1941.35 289.402C1941.98 289.147 1942.61 288.893 1943.24 288.641L1943.42 289.105C1944.05 288.852 1944.68 288.602 1945.31 288.352L1945.13 287.887C1945.76 287.639 1946.39 287.393 1947.02 287.148L1947.2 287.614C1947.83 287.37 1948.47 287.128 1949.1 286.887L1948.92 286.419C1949.56 286.178 1950.19 285.938 1950.83 285.7L1951.01 286.168C1951.64 285.933 1952.27 285.699 1952.91 285.466L1952.74 284.997C1953.37 284.764 1954.01 284.532 1954.65 284.302L1954.82 284.772C1955.14 284.657 1955.46 284.542 1955.78 284.428C1956.1 284.314 1956.42 284.2 1956.75 284.087L1956.58 283.616C1957.22 283.389 1957.86 283.165 1958.5 282.943L1958.67 283.416C1959.31 283.195 1959.94 282.976 1960.58 282.759L1960.42 282.286C1961.07 282.067 1961.71 281.85 1962.36 281.636L1962.52 282.11C1963.16 281.896 1963.8 281.684 1964.44 281.475L1964.29 281C1964.94 280.789 1965.58 280.582 1966.22 280.376L1966.38 280.853C1967.02 280.646 1967.67 280.441 1968.32 280.239L1968.17 279.762C1968.82 279.56 1969.46 279.36 1970.11 279.163L1970.25 279.642C1970.91 279.443 1971.56 279.246 1972.2 279.053L1972.06 278.574C1972.71 278.379 1973.36 278.187 1974.01 277.998L1974.15 278.478C1974.8 278.288 1975.45 278.101 1976.1 277.917L1975.96 277.436C1976.62 277.249 1977.28 277.064 1977.93 276.883L1978.06 277.365C1978.72 277.184 1979.37 277.005 1980.02 276.83L1979.89 276.347C1980.54 276.169 1981.2 275.993 1981.86 275.821L1981.98 276.304C1982.64 276.131 1983.3 275.961 1983.95 275.794L1983.83 275.31C1984.49 275.141 1985.14 274.975 1985.8 274.812L1985.92 275.298C1986.58 275.133 1987.24 274.972 1987.9 274.813L1987.78 274.327C1988.44 274.168 1989.09 274.012 1989.75 273.86L1989.86 274.346C1990.53 274.191 1991.19 274.038 1991.85 273.889L1991.74 273.401C1992.41 273.252 1993.07 273.105 1993.72 272.962L1993.83 273.45C1994.5 273.305 1995.16 273.163 1995.82 273.024L1995.72 272.535C1996.39 272.395 1997.05 272.258 1997.71 272.125L1997.81 272.615C1998.48 272.48 1999.14 272.349 1999.8 272.221L1999.7 271.731C2000.38 271.601 2001.04 271.474 2001.71 271.351L2001.8 271.843C2002.47 271.72 2003.13 271.6 2003.79 271.484L2003.7 270.992C2004.38 270.873 2005.05 270.757 2005.72 270.646L2005.8 271.139C2006.47 271.028 2007.13 270.92 2007.79 270.816L2007.71 270.322C2008.39 270.215 2009.07 270.112 2009.74 270.012L2009.81 270.507C2010.48 270.408 2011.15 270.312 2011.81 270.221L2011.74 269.726C2012.42 269.632 2013.1 269.542 2013.77 269.456L2013.84 269.952C2014.51 269.866 2015.18 269.784 2015.84 269.707L2015.78 269.21C2016.46 269.13 2017.14 269.055 2017.82 268.984L2017.87 269.481C2018.54 269.41 2019.21 269.343 2019.88 269.281L2019.83 268.783C2020.51 268.718 2021.19 268.659 2021.87 268.604L2021.91 269.102C2022.58 269.047 2023.25 268.996 2023.92 268.951L2023.88 268.452C2024.57 268.405 2025.25 268.363 2025.93 268.326L2025.96 268.825C2026.63 268.788 2027.31 268.756 2027.97 268.729L2027.95 268.229C2028.64 268.201 2029.32 268.179 2030 268.163L2030.01 268.662C2030.69 268.646 2031.36 268.634 2032.03 268.629L2032.03 268.129C2032.71 268.124 2033.39 268.124 2034.06 268.131L2034.06 268.631C2034.74 268.638 2035.42 268.651 2036.09 268.671L2036.1 268.171C2036.78 268.191 2037.46 268.218 2038.12 268.252L2038.09 268.751C2038.78 268.786 2039.46 268.828 2040.13 268.878L2040.17 268.379C2040.85 268.431 2041.53 268.49 2042.19 268.557L2042.14 269.054C2042.82 269.122 2043.48 269.199 2044.13 269.283L2044.2 268.787C2044.89 268.877 2045.57 268.976 2046.23 269.084L2046.15 269.578C2046.82 269.689 2047.49 269.81 2048.13 269.941L2048.23 269.451C2048.91 269.588 2049.57 269.737 2050.21 269.896L2050.09 270.381C2050.76 270.546 2051.4 270.722 2052.02 270.91L2052.17 270.432C2052.83 270.634 2053.48 270.849 2054.1 271.078L2053.92 271.547C2054.57 271.786 2055.19 272.04 2055.77 272.308L2055.98 271.853C2056.62 272.144 2057.22 272.452 2057.8 272.777L2057.55 273.211C2058.14 273.55 2058.7 273.906 2059.21 274.28L2059.5 273.876C2060.07 274.287 2060.59 274.721 2061.06 275.177L2060.71 275.537C2061.2 276.003 2061.63 276.492 2062 277.003L2062.41 276.706Z" stroke="white" stroke-dasharray="2 2"/>
<path d="M1864.67 1130.94C1864.69 1131.63 1864.63 1132.3 1864.49 1132.95L1864 1132.84C1863.93 1133.15 1863.84 1133.45 1863.74 1133.74C1863.63 1134.04 1863.5 1134.33 1863.35 1134.61L1863.79 1134.84C1863.48 1135.43 1863.1 1135.98 1862.64 1136.49L1862.27 1136.16C1861.85 1136.61 1861.38 1137.05 1860.84 1137.45L1861.14 1137.85C1860.62 1138.23 1860.05 1138.59 1859.43 1138.92L1859.2 1138.48C1858.65 1138.78 1858.05 1139.05 1857.41 1139.31L1857.6 1139.77C1857 1140.01 1856.36 1140.24 1855.69 1140.44L1855.54 1139.96C1854.93 1140.15 1854.29 1140.32 1853.62 1140.47L1853.73 1140.96C1853.09 1141.11 1852.43 1141.24 1851.74 1141.36L1851.66 1140.86C1851.02 1140.97 1850.36 1141.07 1849.68 1141.16L1849.74 1141.65C1849.09 1141.74 1848.42 1141.81 1847.73 1141.87L1847.69 1141.37C1847.04 1141.42 1846.37 1141.47 1845.69 1141.51L1845.72 1142.01C1845.06 1142.04 1844.39 1142.07 1843.7 1142.08L1843.69 1141.58C1843.03 1141.6 1842.36 1141.61 1841.67 1141.6L1841.67 1142.1C1841.01 1142.1 1840.33 1142.09 1839.64 1142.08L1839.66 1141.58C1839 1141.56 1838.33 1141.53 1837.65 1141.5L1837.62 1142C1836.96 1141.97 1836.29 1141.93 1835.61 1141.89L1835.64 1141.39C1834.98 1141.34 1834.31 1141.29 1833.63 1141.24L1833.59 1141.73C1832.92 1141.68 1832.25 1141.61 1831.57 1141.55L1831.62 1141.05C1830.96 1140.98 1830.29 1140.91 1829.62 1140.83L1829.57 1141.33C1828.9 1141.25 1828.23 1141.17 1827.56 1141.08L1827.62 1140.58C1826.96 1140.49 1826.29 1140.4 1825.62 1140.3L1825.54 1140.8C1824.89 1140.7 1824.22 1140.6 1823.55 1140.49L1823.63 1140C1822.97 1139.9 1822.31 1139.79 1821.64 1139.67L1821.55 1140.16C1820.89 1140.05 1820.23 1139.93 1819.56 1139.81L1819.65 1139.32C1819 1139.2 1818.34 1139.07 1817.67 1138.94L1817.58 1139.43C1816.92 1139.3 1816.25 1139.17 1815.59 1139.03L1815.69 1138.54C1815.04 1138.41 1814.38 1138.27 1813.72 1138.12L1813.61 1138.61C1812.96 1138.47 1812.3 1138.32 1811.64 1138.17L1811.75 1137.68C1811.1 1137.53 1810.44 1137.38 1809.78 1137.22L1809.67 1137.71C1809.02 1137.55 1808.36 1137.39 1807.7 1137.23L1807.83 1136.74C1807.17 1136.58 1806.52 1136.41 1805.86 1136.24L1805.74 1136.73C1805.09 1136.56 1804.44 1136.38 1803.79 1136.21L1803.92 1135.73C1803.27 1135.55 1802.62 1135.37 1801.96 1135.19L1801.83 1135.67C1801.19 1135.49 1800.54 1135.31 1799.89 1135.12L1800.03 1134.64C1799.38 1134.45 1798.74 1134.26 1798.09 1134.07L1797.94 1134.55C1797.3 1134.36 1796.66 1134.16 1796.01 1133.96L1796.16 1133.49C1795.52 1133.29 1794.87 1133.09 1794.23 1132.88L1794.08 1133.36C1793.44 1133.16 1792.8 1132.95 1792.15 1132.74L1792.31 1132.27C1791.67 1132.06 1791.03 1131.85 1790.39 1131.63L1790.23 1132.11C1789.59 1131.89 1788.96 1131.68 1788.32 1131.46L1788.48 1130.98C1787.84 1130.77 1787.21 1130.54 1786.57 1130.32L1786.41 1130.79C1785.77 1130.57 1785.14 1130.34 1784.5 1130.11L1784.67 1129.64C1784.35 1129.53 1784.04 1129.41 1783.72 1129.29C1783.4 1129.18 1783.08 1129.06 1782.77 1128.94L1782.59 1129.41C1781.96 1129.18 1781.33 1128.94 1780.7 1128.7L1780.88 1128.23C1780.24 1127.99 1779.62 1127.75 1778.99 1127.51L1778.81 1127.97C1778.18 1127.73 1777.55 1127.48 1776.93 1127.23L1777.11 1126.77C1776.49 1126.52 1775.86 1126.26 1775.24 1126.01L1775.05 1126.47C1774.42 1126.22 1773.8 1125.96 1773.18 1125.7L1773.38 1125.24C1772.75 1124.98 1772.13 1124.72 1771.51 1124.45L1771.32 1124.91C1770.7 1124.65 1770.08 1124.38 1769.46 1124.11L1769.66 1123.65C1769.04 1123.38 1768.43 1123.11 1767.81 1122.83L1767.61 1123.29C1766.99 1123.01 1766.38 1122.73 1765.77 1122.45L1765.98 1122C1765.37 1121.72 1764.75 1121.43 1764.14 1121.15L1763.93 1121.6C1763.32 1121.31 1762.71 1121.02 1762.11 1120.73L1762.33 1120.28C1761.72 1119.99 1761.11 1119.69 1760.51 1119.4L1760.29 1119.84C1759.68 1119.54 1759.08 1119.24 1758.48 1118.94L1758.7 1118.5C1758.1 1118.19 1757.5 1117.88 1756.91 1117.58L1756.68 1118.02C1756.07 1117.71 1755.47 1117.4 1754.88 1117.08L1755.12 1116.64C1754.52 1116.32 1753.93 1116.01 1753.35 1115.69L1753.11 1116.13C1752.51 1115.8 1751.91 1115.47 1751.33 1115.15L1751.57 1114.71C1750.98 1114.38 1750.4 1114.05 1749.82 1113.72L1749.57 1114.15C1748.98 1113.81 1748.4 1113.47 1747.82 1113.13L1748.07 1112.7C1747.49 1112.36 1746.91 1112.01 1746.34 1111.67L1746.08 1112.1C1745.5 1111.74 1744.93 1111.39 1744.37 1111.04L1744.63 1110.62C1744.05 1110.26 1743.48 1109.89 1742.92 1109.53L1742.65 1109.95C1742.08 1109.58 1741.51 1109.21 1740.95 1108.85L1741.23 1108.43C1740.67 1108.05 1740.11 1107.68 1739.57 1107.31L1739.29 1107.72C1738.72 1107.33 1738.17 1106.94 1737.62 1106.55L1737.91 1106.15C1737.36 1105.75 1736.81 1105.36 1736.28 1104.96L1735.98 1105.37C1735.43 1104.96 1734.89 1104.56 1734.37 1104.15L1734.67 1103.76C1734.13 1103.34 1733.61 1102.93 1733.09 1102.51L1732.78 1102.9C1732.24 1102.47 1731.72 1102.04 1731.21 1101.61L1731.53 1101.23C1731.01 1100.79 1730.5 1100.35 1730.01 1099.91L1729.68 1100.29C1729.17 1099.83 1728.67 1099.38 1728.19 1098.92L1728.53 1098.56C1728.03 1098.09 1727.56 1097.63 1727.1 1097.16L1726.74 1097.51C1726.26 1097.02 1725.79 1096.54 1725.35 1096.05L1725.71 1095.72C1725.25 1095.21 1724.81 1094.71 1724.4 1094.21L1724.01 1094.54C1723.57 1094 1723.15 1093.47 1722.75 1092.95L1723.15 1092.65C1722.74 1092.1 1722.36 1091.55 1722.01 1091.02L1721.59 1091.29C1721.21 1090.7 1720.87 1090.12 1720.57 1089.54L1721.01 1089.31C1720.69 1088.7 1720.41 1088.11 1720.18 1087.52L1719.72 1087.71C1719.46 1087.06 1719.26 1086.41 1719.11 1085.79L1719.6 1085.68C1719.45 1085.02 1719.36 1084.38 1719.34 1083.77L1718.84 1083.78C1718.82 1083.09 1718.88 1082.42 1719.03 1081.78L1719.51 1081.88C1719.58 1081.57 1719.67 1081.27 1719.78 1080.98C1719.89 1080.68 1720.02 1080.39 1720.16 1080.11L1719.72 1079.88C1720.03 1079.29 1720.42 1078.74 1720.88 1078.23L1721.25 1078.57C1721.66 1078.11 1722.14 1077.68 1722.68 1077.27L1722.38 1076.87C1722.89 1076.49 1723.46 1076.13 1724.08 1075.8L1724.32 1076.24C1724.87 1075.94 1725.46 1075.67 1726.1 1075.41L1725.92 1074.95C1726.52 1074.71 1727.16 1074.48 1727.83 1074.28L1727.97 1074.76C1728.59 1074.57 1729.23 1074.4 1729.9 1074.25L1729.79 1073.76C1730.43 1073.62 1731.09 1073.48 1731.77 1073.36L1731.86 1073.86C1732.5 1073.75 1733.15 1073.65 1733.83 1073.56L1733.77 1073.07C1734.42 1072.99 1735.09 1072.91 1735.78 1072.86L1735.82 1073.35C1736.47 1073.3 1737.14 1073.25 1737.82 1073.21L1737.8 1072.71C1738.46 1072.68 1739.13 1072.65 1739.82 1072.64L1739.83 1073.14C1740.49 1073.12 1741.16 1073.12 1741.84 1073.12L1741.84 1072.62C1742.51 1072.62 1743.18 1072.63 1743.87 1072.65L1743.86 1073.15C1744.52 1073.16 1745.19 1073.19 1745.87 1073.22L1745.89 1072.72C1746.55 1072.75 1747.22 1072.79 1747.9 1072.83L1747.87 1073.33C1748.53 1073.38 1749.2 1073.43 1749.88 1073.49L1749.92 1072.99C1750.59 1073.04 1751.27 1073.11 1751.95 1073.18L1751.9 1073.67C1752.56 1073.74 1753.22 1073.81 1753.89 1073.89L1753.95 1073.39C1754.61 1073.47 1755.28 1073.55 1755.96 1073.64L1755.89 1074.14C1756.56 1074.23 1757.22 1074.32 1757.9 1074.42L1757.97 1073.92C1758.63 1074.02 1759.29 1074.12 1759.96 1074.23L1759.88 1074.72C1760.54 1074.83 1761.21 1074.94 1761.88 1075.05L1761.96 1074.56C1762.62 1074.67 1763.28 1074.79 1763.95 1074.91L1763.86 1075.4C1764.52 1075.53 1765.18 1075.65 1765.84 1075.78L1765.94 1075.29C1766.6 1075.42 1767.26 1075.55 1767.93 1075.69L1767.83 1076.18C1768.48 1076.32 1769.13 1076.46 1769.79 1076.6L1769.9 1076.11C1770.56 1076.25 1771.21 1076.4 1771.88 1076.55L1771.77 1077.04C1772.42 1077.19 1773.07 1077.34 1773.73 1077.5L1773.85 1077.01C1774.5 1077.17 1775.15 1077.33 1775.81 1077.49L1775.69 1077.98C1776.34 1078.14 1776.99 1078.31 1777.65 1078.48L1777.78 1078C1778.42 1078.16 1779.07 1078.34 1779.73 1078.51L1779.6 1078.99C1780.25 1079.17 1780.9 1079.35 1781.55 1079.53L1781.69 1079.05C1782.33 1079.23 1782.98 1079.41 1783.62 1079.6L1783.49 1080.08C1784.13 1080.27 1784.78 1080.46 1785.43 1080.65L1785.57 1080.17C1786.21 1080.36 1786.86 1080.56 1787.5 1080.76L1787.36 1081.23C1788 1081.43 1788.64 1081.63 1789.29 1081.84L1789.44 1081.36C1790.08 1081.56 1790.72 1081.77 1791.36 1081.98L1791.21 1082.45C1791.84 1082.66 1792.48 1082.87 1793.12 1083.09L1793.28 1082.61C1793.92 1082.83 1794.56 1083.04 1795.2 1083.26L1795.04 1083.74C1795.67 1083.95 1796.31 1084.18 1796.94 1084.4L1797.11 1083.93C1797.74 1084.15 1798.38 1084.38 1799.01 1084.61L1798.84 1085.08C1799.16 1085.2 1799.48 1085.31 1799.8 1085.43C1800.11 1085.54 1800.43 1085.66 1800.75 1085.78L1800.92 1085.31C1801.56 1085.55 1802.19 1085.78 1802.82 1086.02L1802.64 1086.49C1803.27 1086.73 1803.9 1086.97 1804.52 1087.21L1804.71 1086.75C1805.34 1086.99 1805.96 1087.24 1806.59 1087.49L1806.4 1087.95C1807.03 1088.2 1807.65 1088.46 1808.28 1088.71L1808.46 1088.25C1809.09 1088.5 1809.71 1088.76 1810.33 1089.02L1810.14 1089.48C1810.76 1089.74 1811.38 1090 1812 1090.27L1812.2 1089.81C1812.82 1090.07 1813.44 1090.34 1814.05 1090.61L1813.85 1091.07C1814.47 1091.34 1815.09 1091.61 1815.7 1091.89L1815.9 1091.43C1816.52 1091.71 1817.13 1091.99 1817.74 1092.27L1817.53 1092.72C1818.15 1093 1818.76 1093.29 1819.37 1093.57L1819.58 1093.12C1820.19 1093.41 1820.8 1093.7 1821.4 1093.99L1821.19 1094.44C1821.8 1094.73 1822.41 1095.03 1823.01 1095.33L1823.23 1094.88C1823.84 1095.18 1824.44 1095.48 1825.04 1095.78L1824.81 1096.23C1825.42 1096.53 1826.01 1096.84 1826.61 1097.14L1826.84 1096.7C1827.44 1097.01 1828.04 1097.33 1828.63 1097.64L1828.4 1098.08C1828.99 1098.4 1829.58 1098.72 1830.17 1099.03L1830.41 1098.59C1831.01 1098.92 1831.6 1099.25 1832.19 1099.57L1831.94 1100.01C1832.53 1100.34 1833.12 1100.67 1833.7 1101L1833.94 1100.57C1834.53 1100.91 1835.12 1101.25 1835.7 1101.59L1835.44 1102.02C1836.03 1102.36 1836.6 1102.71 1837.18 1103.05L1837.43 1102.63C1838.01 1102.98 1838.59 1103.33 1839.15 1103.68L1838.88 1104.1C1839.46 1104.47 1840.03 1104.83 1840.6 1105.19L1840.87 1104.77C1841.44 1105.14 1842 1105.51 1842.56 1105.88L1842.28 1106.29C1842.85 1106.67 1843.4 1107.04 1843.95 1107.41L1844.23 1107C1844.79 1107.39 1845.35 1107.78 1845.89 1108.17L1845.6 1108.57C1846.16 1108.97 1846.7 1109.36 1847.24 1109.76L1847.53 1109.36C1848.08 1109.76 1848.62 1110.17 1849.15 1110.57L1848.84 1110.97C1849.38 1111.38 1849.91 1111.79 1850.42 1112.21L1850.73 1111.82C1851.27 1112.25 1851.79 1112.68 1852.3 1113.11L1851.98 1113.49C1852.5 1113.93 1853.01 1114.37 1853.5 1114.81L1853.83 1114.43C1854.35 1114.89 1854.85 1115.34 1855.33 1115.8L1854.98 1116.16C1855.48 1116.63 1855.96 1117.1 1856.42 1117.56L1856.77 1117.21C1857.26 1117.7 1857.72 1118.18 1858.17 1118.67L1857.8 1119.01C1858.26 1119.51 1858.7 1120.01 1859.12 1120.51L1859.5 1120.19C1859.95 1120.72 1860.37 1121.25 1860.76 1121.77L1860.36 1122.07C1860.77 1122.62 1861.15 1123.17 1861.5 1123.71L1861.92 1123.43C1862.3 1124.02 1862.64 1124.61 1862.95 1125.18L1862.51 1125.41C1862.83 1126.02 1863.1 1126.61 1863.33 1127.2L1863.8 1127.01C1864.06 1127.67 1864.26 1128.31 1864.4 1128.93L1863.92 1129.05C1864.07 1129.7 1864.15 1130.34 1864.17 1130.96L1864.67 1130.94Z" stroke="white" stroke-dasharray="2 2"/>
<path d="M1884.77 1137.93C1884.85 1138.62 1884.83 1139.28 1884.72 1139.91L1884.23 1139.82C1884.17 1140.12 1884.09 1140.42 1883.99 1140.7C1883.88 1140.99 1883.76 1141.26 1883.6 1141.53L1884.04 1141.78C1883.72 1142.33 1883.3 1142.85 1882.79 1143.32L1882.45 1142.95C1882.02 1143.36 1881.51 1143.73 1880.93 1144.07L1881.19 1144.5C1880.64 1144.83 1880.04 1145.12 1879.39 1145.39L1879.2 1144.93C1878.63 1145.16 1878.02 1145.37 1877.37 1145.56L1877.51 1146.04C1876.9 1146.22 1876.26 1146.39 1875.58 1146.53L1875.47 1146.04C1874.86 1146.17 1874.21 1146.29 1873.53 1146.4L1873.61 1146.89C1872.97 1146.99 1872.31 1147.07 1871.63 1147.15L1871.57 1146.65C1870.94 1146.72 1870.29 1146.77 1869.62 1146.82L1869.65 1147.32C1869 1147.36 1868.34 1147.4 1867.66 1147.42L1867.64 1146.92C1867 1146.94 1866.34 1146.96 1865.66 1146.96L1865.66 1147.46C1865.01 1147.47 1864.33 1147.47 1863.65 1147.46L1863.66 1146.96C1863.01 1146.95 1862.36 1146.93 1861.69 1146.91L1861.67 1147.41C1861.02 1147.38 1860.35 1147.35 1859.68 1147.31L1859.71 1146.81C1859.05 1146.78 1858.38 1146.74 1857.71 1146.69L1857.67 1147.19C1857.02 1147.14 1856.36 1147.09 1855.7 1147.03L1855.74 1146.53C1855.09 1146.47 1854.42 1146.41 1853.75 1146.34L1853.7 1146.84C1853.05 1146.77 1852.39 1146.7 1851.72 1146.63L1851.78 1146.13C1851.13 1146.05 1850.47 1145.97 1849.8 1145.89L1849.74 1146.39C1849.09 1146.3 1848.42 1146.22 1847.76 1146.12L1847.82 1145.63C1847.18 1145.54 1846.52 1145.44 1845.86 1145.35L1845.79 1145.84C1845.13 1145.74 1844.47 1145.64 1843.8 1145.53L1843.88 1145.04C1843.24 1144.94 1842.59 1144.83 1841.93 1144.72L1841.85 1145.21C1841.19 1145.1 1840.53 1144.99 1839.86 1144.87L1839.95 1144.38C1839.31 1144.26 1838.66 1144.14 1838.01 1144.02L1837.92 1144.51C1837.26 1144.39 1836.6 1144.27 1835.94 1144.14L1836.04 1143.65C1835.39 1143.52 1834.75 1143.39 1834.1 1143.26L1834 1143.75C1833.35 1143.62 1832.69 1143.48 1832.03 1143.34L1832.13 1142.85C1831.49 1142.72 1830.85 1142.58 1830.2 1142.44L1830.09 1142.93C1829.44 1142.78 1828.79 1142.64 1828.13 1142.49L1828.24 1142C1827.6 1141.86 1826.96 1141.71 1826.31 1141.56L1826.19 1142.05C1825.55 1141.9 1824.9 1141.74 1824.25 1141.59L1824.36 1141.1C1823.72 1140.95 1823.08 1140.79 1822.43 1140.63L1822.31 1141.12C1821.67 1140.96 1821.02 1140.8 1820.37 1140.64L1820.5 1140.15C1819.85 1139.99 1819.21 1139.82 1818.56 1139.66L1818.43 1140.14C1817.79 1139.97 1817.15 1139.81 1816.51 1139.64L1816.64 1139.15C1816 1138.98 1815.35 1138.81 1814.7 1138.63L1814.57 1139.12C1813.94 1138.94 1813.3 1138.77 1812.66 1138.59L1812.79 1138.11C1812.15 1137.93 1811.51 1137.75 1810.87 1137.57L1810.73 1138.05C1810.09 1137.87 1809.45 1137.69 1808.81 1137.5L1808.95 1137.02C1808.32 1136.84 1807.68 1136.65 1807.04 1136.46L1806.9 1136.94C1806.26 1136.76 1805.62 1136.57 1804.98 1136.37L1805.12 1135.89C1804.49 1135.7 1803.86 1135.51 1803.22 1135.32L1803.07 1135.8C1802.44 1135.6 1801.8 1135.41 1801.16 1135.21L1801.31 1134.73C1800.68 1134.53 1800.05 1134.33 1799.41 1134.13L1799.26 1134.61C1798.63 1134.41 1797.99 1134.21 1797.36 1134L1797.51 1133.53C1796.88 1133.32 1796.25 1133.12 1795.61 1132.91L1795.46 1133.39C1794.83 1133.18 1794.2 1132.97 1793.57 1132.76L1793.72 1132.29C1793.09 1132.08 1792.46 1131.87 1791.83 1131.65L1791.67 1132.13C1791.04 1131.91 1790.41 1131.7 1789.78 1131.48L1789.94 1131.01C1789.32 1130.8 1788.69 1130.58 1788.06 1130.36L1787.9 1130.83C1787.27 1130.61 1786.64 1130.39 1786.01 1130.17L1786.17 1129.7C1785.55 1129.48 1784.93 1129.25 1784.3 1129.03L1784.13 1129.5C1783.51 1129.28 1782.88 1129.05 1782.25 1128.82L1782.42 1128.35C1782.11 1128.24 1781.8 1128.12 1781.48 1128.01C1781.17 1127.89 1780.86 1127.78 1780.54 1127.66L1780.37 1128.13C1779.74 1127.9 1779.12 1127.67 1778.5 1127.43L1778.67 1126.97C1778.05 1126.73 1777.43 1126.5 1776.81 1126.26L1776.63 1126.73C1776.01 1126.49 1775.39 1126.26 1774.76 1126.02L1774.94 1125.55C1774.32 1125.31 1773.7 1125.07 1773.09 1124.83L1772.9 1125.3C1772.28 1125.05 1771.67 1124.81 1771.05 1124.57L1771.23 1124.1C1770.61 1123.86 1769.99 1123.61 1769.38 1123.36L1769.19 1123.83C1768.57 1123.58 1767.96 1123.33 1767.35 1123.08L1767.53 1122.62C1766.91 1122.37 1766.3 1122.11 1765.68 1121.86L1765.49 1122.32C1764.88 1122.07 1764.26 1121.81 1763.65 1121.56L1763.84 1121.1C1763.23 1120.84 1762.62 1120.58 1762.01 1120.32L1761.81 1120.78C1761.2 1120.52 1760.58 1120.26 1759.97 1120L1760.17 1119.54C1759.56 1119.28 1758.95 1119.01 1758.35 1118.75L1758.15 1119.21C1757.53 1118.94 1756.92 1118.67 1756.31 1118.4L1756.52 1117.94C1755.91 1117.68 1755.3 1117.41 1754.7 1117.13L1754.49 1117.59C1753.88 1117.32 1753.28 1117.04 1752.67 1116.77L1752.88 1116.31C1752.27 1116.04 1751.67 1115.76 1751.07 1115.48L1750.86 1115.94C1750.25 1115.66 1749.65 1115.38 1749.06 1115.1L1749.27 1114.65C1748.66 1114.36 1748.06 1114.08 1747.45 1113.79L1747.24 1114.24C1746.64 1113.96 1746.04 1113.67 1745.45 1113.38L1745.66 1112.93C1745.06 1112.64 1744.46 1112.35 1743.86 1112.06L1743.65 1112.51C1743.05 1112.22 1742.45 1111.92 1741.86 1111.63L1742.08 1111.18C1741.48 1110.88 1740.89 1110.58 1740.3 1110.29L1740.07 1110.73C1739.47 1110.43 1738.88 1110.13 1738.29 1109.83L1738.52 1109.38C1737.93 1109.08 1737.34 1108.77 1736.76 1108.47L1736.52 1108.91C1735.93 1108.6 1735.34 1108.29 1734.75 1107.98L1734.99 1107.54C1734.4 1107.23 1733.81 1106.91 1733.24 1106.6L1733 1107.04C1732.41 1106.72 1731.82 1106.4 1731.24 1106.08L1731.48 1105.64C1730.9 1105.32 1730.32 1105 1729.75 1104.68L1729.5 1105.12C1728.91 1104.79 1728.33 1104.46 1727.75 1104.13L1728 1103.7C1727.42 1103.37 1726.85 1103.04 1726.29 1102.71L1726.04 1103.14C1725.45 1102.8 1724.87 1102.46 1724.3 1102.13L1724.56 1101.7C1723.98 1101.36 1723.42 1101.02 1722.86 1100.68L1722.6 1101.11C1722.02 1100.76 1721.45 1100.41 1720.89 1100.06L1721.15 1099.63C1720.58 1099.28 1720.02 1098.93 1719.47 1098.58L1719.2 1099C1718.63 1098.64 1718.07 1098.28 1717.52 1097.92L1717.79 1097.5C1717.23 1097.13 1716.67 1096.77 1716.13 1096.41L1715.85 1096.82C1715.29 1096.45 1714.74 1096.08 1714.2 1095.7L1714.49 1095.29C1713.93 1094.91 1713.38 1094.53 1712.85 1094.15L1712.56 1094.56C1712.01 1094.17 1711.47 1093.79 1710.95 1093.4L1711.24 1093C1710.7 1092.6 1710.16 1092.2 1709.64 1091.81L1709.34 1092.2C1708.8 1091.8 1708.27 1091.39 1707.76 1090.99L1708.06 1090.59C1707.54 1090.18 1707.03 1089.77 1706.53 1089.36L1706.21 1089.75C1705.68 1089.31 1705.17 1088.88 1704.67 1088.45L1705 1088.07C1704.49 1087.63 1703.99 1087.19 1703.51 1086.76L1703.17 1087.13C1702.67 1086.67 1702.19 1086.21 1701.72 1085.76L1702.07 1085.4C1701.59 1084.93 1701.13 1084.47 1700.69 1084.01L1700.33 1084.35C1699.85 1083.86 1699.4 1083.36 1698.98 1082.88L1699.36 1082.55C1698.91 1082.03 1698.49 1081.53 1698.11 1081.03L1697.71 1081.33C1697.29 1080.78 1696.9 1080.24 1696.55 1079.71L1696.97 1079.43C1696.59 1078.87 1696.26 1078.31 1695.98 1077.77L1695.54 1078C1695.21 1077.37 1694.94 1076.76 1694.74 1076.16L1695.21 1076C1694.99 1075.36 1694.85 1074.74 1694.78 1074.16L1694.28 1074.22C1694.2 1073.53 1694.21 1072.87 1694.33 1072.24L1694.82 1072.33C1694.87 1072.03 1694.95 1071.73 1695.06 1071.45C1695.16 1071.16 1695.29 1070.89 1695.44 1070.62L1695.01 1070.37C1695.33 1069.82 1695.75 1069.3 1696.25 1068.83L1696.6 1069.2C1697.03 1068.8 1697.53 1068.42 1698.11 1068.08L1697.86 1067.65C1698.4 1067.32 1699 1067.03 1699.66 1066.76L1699.85 1067.22C1700.41 1066.99 1701.02 1066.78 1701.68 1066.59L1701.54 1066.11C1702.15 1065.93 1702.79 1065.76 1703.47 1065.62L1703.57 1066.11C1704.19 1065.98 1704.84 1065.86 1705.51 1065.75L1705.44 1065.26C1706.07 1065.16 1706.74 1065.08 1707.42 1065L1707.47 1065.5C1708.1 1065.43 1708.76 1065.38 1709.43 1065.33L1709.4 1064.83C1710.04 1064.79 1710.7 1064.75 1711.38 1064.73L1711.4 1065.23C1712.05 1065.21 1712.71 1065.19 1713.39 1065.19L1713.38 1064.69C1714.04 1064.68 1714.71 1064.68 1715.4 1064.69L1715.39 1065.19C1716.03 1065.2 1716.69 1065.22 1717.36 1065.24L1717.37 1064.74C1718.03 1064.77 1718.69 1064.8 1719.37 1064.84L1719.34 1065.34C1720 1065.37 1720.66 1065.41 1721.34 1065.46L1721.38 1064.96C1722.02 1065.01 1722.68 1065.06 1723.35 1065.12L1723.3 1065.62C1723.96 1065.68 1724.62 1065.74 1725.29 1065.81L1725.34 1065.31C1726 1065.38 1726.66 1065.45 1727.32 1065.52L1727.27 1066.02C1727.92 1066.1 1728.58 1066.18 1729.24 1066.26L1729.3 1065.76C1729.96 1065.85 1730.62 1065.93 1731.29 1066.03L1731.22 1066.52C1731.87 1066.61 1732.52 1066.71 1733.18 1066.8L1733.26 1066.31C1733.91 1066.41 1734.58 1066.51 1735.24 1066.62L1735.16 1067.11C1735.81 1067.21 1736.46 1067.32 1737.12 1067.43L1737.2 1066.94C1737.86 1067.05 1738.52 1067.16 1739.18 1067.28L1739.09 1067.77C1739.74 1067.89 1740.39 1068.01 1741.04 1068.13L1741.13 1067.64C1741.78 1067.76 1742.44 1067.88 1743.11 1068.01L1743.01 1068.5C1743.65 1068.63 1744.3 1068.76 1744.95 1068.89L1745.05 1068.4C1745.7 1068.53 1746.36 1068.67 1747.02 1068.81L1746.91 1069.3C1747.55 1069.43 1748.2 1069.57 1748.85 1069.71L1748.96 1069.22C1749.6 1069.37 1750.26 1069.51 1750.91 1069.66L1750.8 1070.15C1751.44 1070.29 1752.09 1070.44 1752.74 1070.59L1752.85 1070.1C1753.5 1070.25 1754.15 1070.41 1754.8 1070.56L1754.68 1071.05C1755.32 1071.2 1755.97 1071.36 1756.62 1071.52L1756.74 1071.03C1757.38 1071.19 1758.02 1071.35 1758.67 1071.51L1758.55 1072C1759.19 1072.16 1759.84 1072.33 1760.49 1072.5L1760.61 1072.01C1761.25 1072.18 1761.89 1072.34 1762.54 1072.51L1762.41 1073C1763.05 1073.17 1763.7 1073.34 1764.34 1073.52L1764.47 1073.03C1765.11 1073.21 1765.75 1073.38 1766.39 1073.56L1766.26 1074.04C1766.9 1074.22 1767.54 1074.4 1768.18 1074.58L1768.32 1074.1C1768.95 1074.28 1769.59 1074.46 1770.23 1074.65L1770.1 1075.13C1770.73 1075.31 1771.37 1075.5 1772.01 1075.69L1772.15 1075.21C1772.79 1075.39 1773.43 1075.58 1774.07 1075.78L1773.93 1076.26C1774.56 1076.45 1775.19 1076.64 1775.83 1076.83L1775.97 1076.35C1776.61 1076.55 1777.25 1076.74 1777.88 1076.94L1777.74 1077.42C1778.37 1077.62 1779 1077.82 1779.63 1078.02L1779.79 1077.54C1780.42 1077.74 1781.05 1077.94 1781.69 1078.15L1781.53 1078.62C1782.17 1078.83 1782.8 1079.03 1783.43 1079.24L1783.59 1078.77C1784.22 1078.97 1784.85 1079.18 1785.48 1079.39L1785.32 1079.86C1785.95 1080.07 1786.58 1080.28 1787.22 1080.5L1787.38 1080.02C1788 1080.24 1788.63 1080.45 1789.26 1080.67L1789.1 1081.14C1789.73 1081.36 1790.36 1081.57 1790.98 1081.79L1791.15 1081.32C1791.78 1081.54 1792.41 1081.76 1793.04 1081.98L1792.87 1082.45C1793.49 1082.67 1794.12 1082.9 1794.74 1083.12L1794.91 1082.65C1795.54 1082.87 1796.16 1083.1 1796.79 1083.33L1796.62 1083.8C1796.93 1083.91 1797.25 1084.03 1797.56 1084.14C1797.88 1084.26 1798.19 1084.37 1798.5 1084.49L1798.68 1084.02C1799.3 1084.25 1799.93 1084.48 1800.55 1084.72L1800.37 1085.18C1801 1085.42 1801.62 1085.65 1802.23 1085.89L1802.41 1085.42C1803.04 1085.66 1803.66 1085.89 1804.28 1086.13L1804.1 1086.6C1804.72 1086.84 1805.34 1087.08 1805.96 1087.32L1806.14 1086.85C1806.76 1087.1 1807.38 1087.34 1808 1087.58L1807.81 1088.05C1808.43 1088.29 1809.05 1088.54 1809.67 1088.79L1809.86 1088.32C1810.47 1088.57 1811.09 1088.82 1811.7 1089.07L1811.51 1089.53C1812.13 1089.78 1812.75 1090.04 1813.36 1090.29L1813.55 1089.83C1814.17 1090.08 1814.78 1090.34 1815.4 1090.59L1815.2 1091.05C1815.82 1091.31 1816.43 1091.57 1817.04 1091.83L1817.23 1091.37C1817.85 1091.63 1818.46 1091.89 1819.07 1092.15L1818.88 1092.61C1819.49 1092.87 1820.09 1093.14 1820.7 1093.4L1820.9 1092.94C1821.51 1093.21 1822.12 1093.48 1822.73 1093.75L1822.53 1094.21C1823.14 1094.47 1823.75 1094.74 1824.35 1095.02L1824.55 1094.56C1825.16 1094.83 1825.77 1095.11 1826.37 1095.38L1826.16 1095.84C1826.77 1096.11 1827.38 1096.39 1827.98 1096.67L1828.19 1096.21C1828.79 1096.49 1829.39 1096.77 1829.99 1097.05L1829.78 1097.5C1830.39 1097.79 1830.99 1098.07 1831.59 1098.36L1831.81 1097.91C1832.41 1098.19 1833.01 1098.48 1833.6 1098.77L1833.38 1099.22C1833.99 1099.51 1834.59 1099.8 1835.18 1100.09L1835.4 1099.64C1836 1099.93 1836.6 1100.23 1837.19 1100.52L1836.97 1100.97C1837.56 1101.27 1838.16 1101.57 1838.75 1101.86L1838.97 1101.42C1839.57 1101.72 1840.17 1102.02 1840.75 1102.32L1840.53 1102.77C1841.12 1103.07 1841.71 1103.38 1842.29 1103.68L1842.52 1103.24C1843.12 1103.55 1843.71 1103.86 1844.3 1104.17L1844.06 1104.61C1844.65 1104.93 1845.23 1105.24 1845.81 1105.55L1846.05 1105.11C1846.64 1105.43 1847.23 1105.75 1847.81 1106.07L1847.57 1106.51C1848.15 1106.83 1848.73 1107.15 1849.3 1107.47L1849.54 1107.03C1850.13 1107.36 1850.72 1107.69 1851.29 1108.02L1851.05 1108.45C1851.62 1108.78 1852.19 1109.11 1852.76 1109.44L1853.01 1109.01C1853.6 1109.35 1854.17 1109.69 1854.74 1110.02L1854.49 1110.45C1855.06 1110.79 1855.63 1111.13 1856.19 1111.47L1856.45 1111.04C1857.02 1111.4 1857.59 1111.75 1858.16 1112.09L1857.89 1112.52C1858.46 1112.87 1859.02 1113.22 1859.57 1113.57L1859.84 1113.15C1860.41 1113.51 1860.97 1113.87 1861.53 1114.23L1861.26 1114.65C1861.82 1115.02 1862.37 1115.38 1862.92 1115.75L1863.19 1115.33C1863.75 1115.7 1864.3 1116.07 1864.84 1116.45L1864.56 1116.86C1865.12 1117.24 1865.66 1117.62 1866.2 1118L1866.49 1117.59C1867.04 1117.98 1867.57 1118.36 1868.1 1118.75L1867.8 1119.15C1868.35 1119.55 1868.88 1119.95 1869.41 1120.34L1869.71 1119.95C1870.25 1120.35 1870.78 1120.76 1871.29 1121.17L1870.98 1121.56C1871.51 1121.97 1872.02 1122.38 1872.52 1122.79L1872.83 1122.4C1873.36 1122.84 1873.88 1123.27 1874.37 1123.7L1874.05 1124.08C1874.56 1124.52 1875.06 1124.96 1875.53 1125.39L1875.87 1125.03C1876.37 1125.48 1876.86 1125.94 1877.32 1126.39L1876.97 1126.75C1877.46 1127.22 1877.92 1127.68 1878.36 1128.14L1878.72 1127.8C1879.19 1128.29 1879.64 1128.79 1880.07 1129.27L1879.69 1129.6C1880.14 1130.12 1880.56 1130.62 1880.94 1131.12L1881.34 1130.82C1881.76 1131.37 1882.15 1131.91 1882.5 1132.44L1882.08 1132.72C1882.45 1133.29 1882.78 1133.84 1883.06 1134.38L1883.51 1134.15C1883.83 1134.78 1884.1 1135.4 1884.31 1135.99L1883.83 1136.15C1884.06 1136.79 1884.2 1137.41 1884.27 1137.99L1884.77 1137.93Z" stroke="white" stroke-dasharray="2 2"/>
<path d="M1225.96 511.393C1227.88 508.44 1232.4 509.238 1233.2 512.671L1236.01 524.764C1236.35 526.217 1237.47 527.362 1238.92 527.733L1251.03 530.84C1254.51 531.733 1255.14 536.407 1252.02 538.189L1241.47 544.209C1240.14 544.969 1239.36 546.423 1239.46 547.952L1240.28 560.012C1240.52 563.555 1236.36 565.629 1233.67 563.31L1224.07 555.032C1222.96 554.073 1221.42 553.8 1220.04 554.321L1208.19 558.817C1204.87 560.076 1201.68 556.707 1203.11 553.459L1208 542.405C1208.62 541.003 1208.39 539.37 1207.4 538.201L1199.54 528.936C1197.22 526.194 1199.41 522.017 1202.99 522.369L1215.43 523.592C1216.92 523.738 1218.36 523.045 1219.18 521.795L1225.96 511.393Z" fill="white"/>
<path d="M2153.49 886.112C2155.41 883.16 2159.94 883.958 2160.73 887.39L2165.19 906.556C2165.53 908.01 2166.65 909.154 2168.09 909.525L2187.41 914.481C2190.89 915.374 2191.52 920.048 2188.4 921.829L2171.47 931.494C2170.14 932.254 2169.36 933.707 2169.46 935.237L2170.76 954.522C2171 958.065 2166.85 960.139 2164.16 957.82L2148.97 944.721C2147.85 943.763 2146.31 943.49 2144.94 944.01L2126.18 951.124C2122.86 952.384 2119.67 949.014 2121.1 945.766L2128.92 928.089C2129.54 926.687 2129.31 925.054 2128.32 923.885L2115.71 909.012C2113.39 906.271 2115.58 902.094 2119.15 902.445L2139 904.396C2140.49 904.541 2141.93 903.849 2142.74 902.598L2153.49 886.112Z" fill="white"/>
<path d="M1955.05 567.096C1956.97 564.143 1961.5 564.941 1962.3 568.374L1963.34 572.855C1963.68 574.308 1964.8 575.453 1966.24 575.824L1970.6 576.943C1974.08 577.836 1974.71 582.51 1971.59 584.291L1967.92 586.39C1966.58 587.15 1965.8 588.603 1965.91 590.133L1966.2 594.415C1966.44 597.958 1962.28 600.033 1959.59 597.714L1956.01 594.624C1954.9 593.665 1953.35 593.392 1951.98 593.913L1947.55 595.591C1944.23 596.85 1941.04 593.481 1942.48 590.233L1944.21 586.308C1944.83 584.906 1944.6 583.273 1943.61 582.103L1940.87 578.874C1938.55 576.132 1940.74 571.955 1944.31 572.307L1948.8 572.747C1950.28 572.893 1951.72 572.201 1952.54 570.95L1955.05 567.096Z" fill="white"/>
<path d="M1921.13 532.096C1923.05 529.143 1927.58 529.941 1928.38 533.374L1929.42 537.855C1929.76 539.308 1930.87 540.453 1932.32 540.824L1936.68 541.943C1940.16 542.836 1940.79 547.51 1937.67 549.291L1933.99 551.39C1932.66 552.15 1931.88 553.603 1931.99 555.133L1932.28 559.415C1932.51 562.958 1928.36 565.033 1925.67 562.714L1922.09 559.624C1920.98 558.665 1919.43 558.392 1918.06 558.913L1913.63 560.591C1910.31 561.85 1907.12 558.481 1908.56 555.233L1910.29 551.308C1910.91 549.906 1910.68 548.273 1909.69 547.103L1906.95 543.874C1904.63 541.132 1906.82 536.955 1910.39 537.307L1914.87 537.747C1916.36 537.893 1917.8 537.201 1918.62 535.95L1921.13 532.096Z" fill="white"/>
</g>
<defs>
<clipPath id="clip0_9_30">
<rect width="2232" height="1282" fill="white"/>
</clipPath>
</defs>
</svg>
