<svg width="2232" height="1282" viewBox="0 0 2232 1282" fill="none" xmlns="http://www.w3.org/2000/svg">
<g clip-path="url(#clip0_9_112)">
<rect width="2232" height="1282" fill="#EF8F00" fill-opacity="0.8"/>
<circle cx="1620" cy="1535" r="1455" fill="#D58712"/>
<circle cx="1655" cy="1550" r="1167" fill="#C27A0E"/>
<path d="M461 1038C461 938.589 541.589 858 641 858H914C1013.41 858 1094 938.589 1094 1038V1378H461V1038Z" fill="#D9D9D9"/>
<ellipse cx="774" cy="661.881" rx="265" ry="262" fill="#824F36"/>
<ellipse cx="504.5" cy="666.381" rx="58.5" ry="57.5" fill="#824F36"/>
<ellipse cx="1036" cy="653.381" rx="58" ry="57.5" fill="#824F36"/>
<ellipse cx="674.593" cy="338.31" rx="63.6968" ry="61.4851" transform="rotate(22.5789 674.593 338.31)" fill="#424141"/>
<ellipse cx="586.905" cy="383.287" rx="63.6968" ry="61.4851" transform="rotate(22.5789 586.905 383.287)" fill="#424141"/>
<ellipse cx="542.989" cy="447.424" rx="63.6968" ry="61.4851" transform="rotate(22.5789 542.989 447.424)" fill="#424141"/>
<ellipse cx="517.343" cy="509.097" rx="71.6589" ry="69.0049" transform="rotate(22.5789 517.343 509.097)" fill="#424141"/>
<ellipse cx="558.905" cy="576.201" rx="34.9448" ry="33.6178" transform="rotate(22.5789 558.905 576.201)" fill="#424141"/>
<ellipse cx="503.453" cy="594.342" rx="34.9448" ry="33.6178" transform="rotate(22.5789 503.453 594.342)" fill="#424141"/>
<ellipse cx="471.652" cy="564.831" rx="34.9448" ry="33.6178" transform="rotate(22.5789 471.652 564.831)" fill="#424141"/>
<ellipse cx="620.601" cy="491.194" rx="54.85" ry="52.6383" transform="rotate(22.5789 620.601 491.194)" fill="#424141"/>
<ellipse cx="728.912" cy="451.919" rx="118.547" ry="113.681" transform="rotate(22.5789 728.912 451.919)" fill="#424141"/>
<ellipse cx="791.067" cy="484.471" rx="118.547" ry="113.681" transform="rotate(22.5789 791.067 484.471)" fill="#424141"/>
<ellipse cx="761.148" cy="328.313" rx="63.6968" ry="61.4851" transform="rotate(22.5789 761.148 328.313)" fill="#424141"/>
<ellipse cx="877.708" cy="338.451" rx="83.6021" ry="80.5057" transform="rotate(22.5789 877.708 338.451)" fill="#424141"/>
<ellipse cx="937.699" cy="438.251" rx="78.7363" ry="75.64" transform="rotate(22.5789 937.699 438.251)" fill="#424141"/>
<ellipse cx="983.702" cy="428.519" rx="78.7363" ry="75.64" transform="rotate(22.5789 983.702 428.519)" fill="#424141"/>
<ellipse cx="1019.09" cy="517.872" rx="78.7363" ry="75.64" transform="rotate(22.5789 1019.09 517.872)" fill="#424141"/>
<ellipse cx="980.62" cy="524.01" rx="56.6194" ry="54.4077" transform="rotate(22.5789 980.62 524.01)" fill="#424141"/>
<ellipse cx="917.086" cy="522.508" rx="56.6194" ry="54.4077" transform="rotate(22.5789 917.086 522.508)" fill="#424141"/>
<rect width="87" height="92" rx="16" transform="matrix(-1 0 0 1 575 565.881)" fill="#3D3D3D"/>
<rect width="86" height="92" rx="16" transform="matrix(-1 0 0 1 1064 558.881)" fill="#3D3D3D"/>
<rect x="545" y="519.881" width="449" height="184" rx="43" fill="#D9D9D9"/>
<path d="M841 837.81C850.789 838.699 880.959 831.228 898.402 817.352C915.845 803.476 928.215 786.369 934 776.881" stroke="black" stroke-width="16"/>
<rect x="572" y="575.881" width="14" height="74" rx="7" fill="#424141"/>
<rect x="572" y="575.881" width="14" height="74" rx="7" fill="#424141"/>
<rect x="572" y="575.881" width="14" height="74" rx="7" fill="#424141"/>
<rect x="962" y="575.881" width="14" height="74" rx="7" fill="#424141"/>
<rect x="962" y="575.881" width="14" height="74" rx="7" fill="#424141"/>
<rect x="962" y="575.881" width="14" height="74" rx="7" fill="#424141"/>
<path d="M1844.56 874.224L1838.61 834.933H1918.38L1911.84 874.224H1844.56Z" fill="#29ABE2"/>
<rect x="1844.85" y="873.104" width="66.3123" height="272.736" fill="#D9272E"/>
<path d="M1790.77 751.589C1787.92 753.494 1706.83 796.833 1738.98 920.659C1747.08 908.276 1760.41 848.03 1828.28 837.91L1796.73 749.207L1793.15 750.398L1790.77 751.589Z" fill="#10213D"/>
<path d="M1966.61 751.589C1969.46 753.494 2050.55 796.833 2018.4 920.659C2010.3 908.276 1996.97 848.03 1929.1 837.91L1960.65 749.207L1964.22 750.398L1966.61 751.589Z" fill="#10213D"/>
<mask id="mask0_9_112" style="mask-type:alpha" maskUnits="userSpaceOnUse" x="1792" y="445" width="182" height="429">
<path d="M1973.15 698.605C1973.15 748.988 1958.93 833.639 1939.82 865.294C1922.63 893.752 1905.53 842.672 1879.69 842.672C1853.85 842.672 1833.06 893.752 1818.97 865.294C1803.29 833.639 1792.18 748.988 1792.18 698.605C1792.18 602.929 1825.11 445 1879.69 445C1934.27 445 1973.15 602.929 1973.15 698.605Z" fill="white"/>
</mask>
<g mask="url(#mask0_9_112)">
<rect x="1792.18" y="444.405" width="180.977" height="98.8227" fill="#15284B"/>
<rect x="1792.18" y="536.084" width="180.977" height="352.428" fill="white"/>
</g>
<circle cx="1882.67" cy="613.475" r="46.4348" fill="#15284B"/>
<circle cx="1882.07" cy="612.88" r="32.7425" fill="#29ABE2"/>
<path d="M1878.72 733.729C1839.44 842.672 1873.73 923.159 1877.54 935.542C1882.3 951.02 1920.99 817.669 1878.72 733.729Z" fill="#10213D"/>
<circle cx="1898.14" cy="1234.39" r="97.6321" fill="#D9272E"/>
<circle cx="1747.53" cy="1177.84" r="135.137" fill="#BC293F"/>
<circle cx="1763.01" cy="1196.89" r="135.137" fill="#D9272E"/>
<circle cx="1611.8" cy="1265.94" r="86.3211" fill="#BC293F"/>
<circle cx="1627.27" cy="1264.75" r="86.3211" fill="#D9272E"/>
<circle cx="1540.95" cy="1293.92" r="51.1973" fill="#D9272E"/>
<circle cx="1955.29" cy="1130.81" r="57.1505" fill="#BC293F"/>
<circle cx="1944.58" cy="1140.33" r="57.1505" fill="#D9272E"/>
<circle cx="2055.31" cy="1211.77" r="108.348" fill="#BC293F"/>
<circle cx="2044.59" cy="1223.68" r="108.348" fill="#D9272E"/>
<circle cx="2175.56" cy="1261.78" r="71.4381" fill="#BC293F"/>
<circle cx="2171.99" cy="1267.73" r="71.4381" fill="#D9272E"/>
<circle cx="92.5" cy="5.5" r="332.5" fill="#D9272E"/>
<circle cx="2216" cy="-6" r="120" fill="#D9272E"/>
<circle cx="199.376" cy="501.257" r="62.5" fill="white"/>
<path d="M297.283 465.463C297.691 466.017 298.04 466.598 298.328 467.205L297.876 467.42C298.014 467.711 298.138 468.009 298.246 468.314C298.354 468.618 298.447 468.927 298.524 469.24L299.01 469.121C299.171 469.774 299.267 470.444 299.301 471.131L298.802 471.156C298.833 471.789 298.808 472.44 298.728 473.107L299.225 473.166C299.147 473.818 299.018 474.482 298.841 475.158L298.357 475.031C298.195 475.646 297.991 476.272 297.744 476.91L298.211 477.09C297.974 477.703 297.7 478.324 297.389 478.952L296.941 478.731C296.655 479.31 296.336 479.897 295.986 480.492L296.417 480.745C296.083 481.314 295.72 481.887 295.33 482.466L294.916 482.186C294.553 482.724 294.166 483.268 293.756 483.815L294.156 484.115C293.759 484.644 293.341 485.176 292.902 485.712L292.515 485.395C292.098 485.904 291.661 486.417 291.204 486.933L291.579 487.264C291.135 487.765 290.674 488.269 290.195 488.776L289.832 488.432C289.381 488.909 288.915 489.387 288.433 489.868L288.787 490.222C288.315 490.693 287.828 491.166 287.327 491.641L286.983 491.278C286.498 491.738 285.999 492.199 285.487 492.663L285.822 493.034C285.33 493.478 284.826 493.924 284.31 494.371L283.983 493.993C283.478 494.43 282.962 494.868 282.434 495.307L282.754 495.692C282.239 496.12 281.714 496.549 281.178 496.979L280.865 496.589C280.346 497.006 279.816 497.423 279.277 497.841L279.584 498.236C279.05 498.65 278.508 499.064 277.956 499.478L277.656 499.078C277.124 499.477 276.584 499.876 276.035 500.275L276.33 500.68C275.783 501.078 275.227 501.477 274.663 501.876L274.374 501.468C273.832 501.851 273.281 502.235 272.723 502.619L273.007 503.031C272.45 503.415 271.885 503.798 271.312 504.182L271.034 503.766C270.48 504.137 269.92 504.508 269.352 504.879L269.626 505.298C269.059 505.668 268.486 506.038 267.906 506.408L267.637 505.987C267.074 506.346 266.505 506.704 265.93 507.063L266.194 507.487C265.619 507.846 265.038 508.204 264.45 508.561L264.19 508.134C263.62 508.481 263.044 508.829 262.462 509.175L262.718 509.605C262.135 509.952 261.546 510.299 260.951 510.646L260.699 510.214C260.123 510.55 259.541 510.886 258.953 511.221L259.201 511.655C258.613 511.991 258.019 512.327 257.42 512.661L257.176 512.225C256.591 512.552 256.002 512.878 255.408 513.204L255.648 513.643C255.055 513.968 254.457 514.292 253.855 514.616L253.618 514.175C253.026 514.494 252.429 514.811 251.827 515.128L252.061 515.571C251.464 515.885 250.862 516.199 250.257 516.512L250.027 516.068C249.427 516.378 248.823 516.687 248.215 516.996L248.442 517.442C247.841 517.746 247.237 518.05 246.629 518.353L246.406 517.906C245.799 518.208 245.188 518.509 244.573 518.81L244.793 519.259C244.189 519.554 243.582 519.848 242.972 520.141L242.755 519.69C242.146 519.983 241.532 520.275 240.916 520.565L241.129 521.018C240.519 521.305 239.905 521.592 239.288 521.878L239.078 521.424C238.466 521.707 237.85 521.99 237.232 522.271L237.439 522.726C236.822 523.007 236.201 523.286 235.578 523.565L235.374 523.108C234.76 523.382 234.143 523.655 233.522 523.927L233.723 524.385C233.102 524.658 232.478 524.929 231.851 525.2L231.653 524.74C231.034 525.007 230.413 525.272 229.789 525.537L229.984 525.997C229.361 526.261 228.735 526.523 228.107 526.784L227.915 526.323C227.29 526.583 226.662 526.841 226.032 527.099L226.221 527.562C225.596 527.817 224.97 528.07 224.34 528.323L224.154 527.859C223.525 528.111 222.894 528.362 222.26 528.612L222.444 529.077C221.815 529.324 221.184 529.571 220.551 529.816L220.371 529.35C219.741 529.593 219.109 529.836 218.474 530.077L218.652 530.544C218.017 530.785 217.38 531.025 216.741 531.264L216.566 530.795C215.935 531.03 215.302 531.265 214.667 531.497L214.839 531.967C214.202 532.2 213.564 532.432 212.923 532.662L212.754 532.191C212.434 532.306 212.113 532.421 211.792 532.535C211.471 532.65 211.15 532.763 210.83 532.876L210.996 533.348C210.354 533.574 209.713 533.798 209.072 534.02L208.909 533.548C208.269 533.769 207.63 533.988 206.993 534.204L207.153 534.678C206.507 534.897 205.862 535.113 205.218 535.328L205.06 534.853C204.416 535.067 203.773 535.279 203.131 535.488L203.286 535.964C202.64 536.174 201.996 536.382 201.352 536.587L201.2 536.111C200.551 536.318 199.903 536.522 199.257 536.724L199.406 537.201C198.759 537.404 198.112 537.603 197.468 537.8L197.321 537.322C196.67 537.521 196.02 537.717 195.371 537.911L195.514 538.39C194.862 538.584 194.212 538.776 193.563 538.966L193.423 538.486C192.772 538.675 192.122 538.863 191.475 539.047L191.612 539.528C190.955 539.715 190.299 539.899 189.646 540.08L189.512 539.599C188.859 539.78 188.209 539.958 187.56 540.134L187.69 540.616C187.031 540.795 186.373 540.97 185.718 541.143L185.59 540.659C184.933 540.832 184.278 541.002 183.625 541.169L183.749 541.654C183.09 541.823 182.433 541.988 181.779 542.151L181.658 541.666C180.996 541.83 180.336 541.992 179.679 542.15L179.796 542.637C179.138 542.795 178.481 542.951 177.828 543.104L177.714 542.617C177.047 542.773 176.384 542.925 175.722 543.075L175.832 543.562C175.17 543.712 174.509 543.858 173.852 544.002L173.745 543.513C173.079 543.659 172.415 543.801 171.754 543.939L171.857 544.429C171.19 544.569 170.526 544.705 169.864 544.839L169.765 544.349C169.099 544.483 168.436 544.614 167.776 544.742L167.871 545.233C167.199 545.363 166.531 545.489 165.866 545.612L165.775 545.12C165.108 545.244 164.445 545.363 163.786 545.479L163.872 545.972C163.196 546.091 162.524 546.206 161.856 546.318L161.774 545.825C161.107 545.936 160.443 546.044 159.784 546.148L159.862 546.641C159.182 546.749 158.506 546.852 157.835 546.951L157.762 546.457C157.092 546.556 156.426 546.651 155.764 546.742L155.833 547.238C155.151 547.332 154.475 547.422 153.803 547.507L153.739 547.012C153.067 547.097 152.399 547.179 151.736 547.257L151.794 547.753C151.111 547.833 150.433 547.909 149.76 547.98L149.707 547.483C149.033 547.554 148.364 547.621 147.7 547.683L147.747 548.181C147.061 548.245 146.381 548.305 145.707 548.36L145.666 547.862C144.991 547.917 144.322 547.967 143.659 548.013L143.693 548.511C143.004 548.559 142.321 548.601 141.645 548.638L141.618 548.139C140.94 548.176 140.269 548.208 139.606 548.235L139.626 548.734C138.936 548.762 138.254 548.784 137.579 548.801L137.567 548.301C136.885 548.318 136.211 548.329 135.545 548.334L135.549 548.834C134.862 548.84 134.184 548.839 133.514 548.833L133.519 548.333C132.833 548.326 132.156 548.313 131.488 548.293L131.474 548.793C130.791 548.772 130.119 548.745 129.457 548.712L129.482 548.213C128.793 548.177 128.114 548.135 127.447 548.085L127.41 548.584C126.722 548.533 126.046 548.474 125.383 548.407L125.433 547.909C124.756 547.841 124.092 547.765 123.442 547.68L123.377 548.176C122.686 548.086 122.01 547.987 121.349 547.879L121.43 547.386C120.75 547.274 120.088 547.153 119.442 547.023L119.343 547.513C118.664 547.375 118.004 547.227 117.362 547.068L117.483 546.582C116.818 546.418 116.175 546.241 115.554 546.053L115.409 546.532C114.742 546.33 114.098 546.114 113.48 545.886L113.653 545.417C113.007 545.177 112.389 544.924 111.801 544.656L111.593 545.11C110.955 544.82 110.351 544.512 109.78 544.187L110.027 543.752C109.433 543.414 108.879 543.057 108.365 542.683L108.071 543.087C107.506 542.676 106.986 542.242 106.514 541.787L106.861 541.427C106.378 540.961 105.947 540.472 105.571 539.961L105.168 540.257C104.761 539.704 104.412 539.123 104.124 538.516L104.575 538.301C104.437 538.01 104.314 537.712 104.205 537.407C104.097 537.103 104.004 536.794 103.927 536.481L103.442 536.6C103.281 535.947 103.184 535.277 103.15 534.59L103.65 534.565C103.619 533.931 103.643 533.281 103.723 532.614L103.226 532.555C103.304 531.903 103.433 531.239 103.611 530.563L104.094 530.69C104.256 530.075 104.46 529.449 104.707 528.811L104.241 528.631C104.477 528.018 104.752 527.397 105.062 526.768L105.51 526.99C105.797 526.411 106.115 525.823 106.465 525.229L106.034 524.975C106.369 524.407 106.731 523.834 107.121 523.255L107.536 523.535C107.898 522.997 108.285 522.453 108.696 521.906L108.296 521.606C108.692 521.077 109.11 520.545 109.549 520.009L109.936 520.326C110.354 519.817 110.791 519.304 111.247 518.788L110.872 518.457C111.316 517.956 111.778 517.451 112.256 516.945L112.62 517.288C113.07 516.812 113.536 516.333 114.018 515.853L113.665 515.499C114.137 515.028 114.623 514.555 115.124 514.08L115.468 514.443C115.953 513.983 116.452 513.521 116.965 513.058L116.629 512.687C117.121 512.243 117.625 511.797 118.141 511.35L118.468 511.728C118.973 511.291 119.49 510.853 120.017 510.414L119.697 510.029C120.212 509.601 120.737 509.172 121.273 508.742L121.586 509.132C122.106 508.715 122.635 508.298 123.174 507.88L122.868 507.485C123.401 507.071 123.944 506.657 124.496 506.243L124.796 506.643C125.327 506.244 125.867 505.845 126.416 505.445L126.122 505.041C126.669 504.643 127.224 504.244 127.788 503.845L128.077 504.253C128.62 503.87 129.17 503.486 129.728 503.102L129.444 502.69C130.002 502.306 130.567 501.923 131.139 501.539L131.417 501.955C131.971 501.584 132.532 501.212 133.099 500.842L132.826 500.423C133.392 500.053 133.965 499.683 134.545 499.313L134.814 499.734C135.377 499.375 135.946 499.017 136.522 498.658L136.257 498.234C136.832 497.875 137.414 497.517 138.001 497.16L138.261 497.587C138.831 497.239 139.408 496.892 139.989 496.546L139.734 496.116C140.317 495.769 140.906 495.422 141.5 495.075L141.752 495.507C142.329 495.171 142.911 494.835 143.498 494.5L143.25 494.066C143.839 493.73 144.432 493.394 145.031 493.059L145.275 493.496C145.86 493.169 146.449 492.843 147.044 492.517L146.803 492.078C147.396 491.753 147.994 491.429 148.597 491.105L148.833 491.546C149.426 491.227 150.023 490.91 150.624 490.593L150.391 490.15C150.988 489.836 151.589 489.522 152.195 489.209L152.424 489.653C153.024 489.343 153.628 489.033 154.236 488.725L154.01 488.279C154.61 487.974 155.214 487.671 155.823 487.368L156.046 487.815C156.653 487.513 157.263 487.212 157.878 486.911L157.659 486.462C158.262 486.167 158.869 485.873 159.48 485.58L159.696 486.031C160.306 485.738 160.919 485.446 161.536 485.156L161.323 484.703C161.933 484.416 162.547 484.129 163.164 483.843L163.374 484.297C163.986 484.014 164.601 483.731 165.219 483.45L165.013 482.995C165.63 482.714 166.25 482.435 166.874 482.156L167.078 482.613C167.692 482.339 168.309 482.066 168.929 481.794L168.728 481.336C169.349 481.063 169.973 480.792 170.601 480.521L170.799 480.981C171.417 480.714 172.038 480.449 172.663 480.184L172.468 479.724C173.09 479.46 173.716 479.198 174.344 478.937L174.536 479.398C175.161 479.138 175.789 478.88 176.42 478.622L176.231 478.159C176.855 477.904 177.482 477.651 178.111 477.398L178.297 477.862C178.926 477.61 179.557 477.359 180.191 477.109L180.008 476.644C180.636 476.396 181.267 476.15 181.9 475.905L182.081 476.371C182.71 476.128 183.343 475.885 183.977 475.644L183.799 475.177C184.434 474.936 185.071 474.696 185.71 474.457L185.885 474.926C186.516 474.69 187.149 474.456 187.785 474.224L187.613 473.754C188.249 473.521 188.888 473.289 189.529 473.059L189.698 473.53C190.018 473.415 190.338 473.3 190.659 473.186C190.98 473.071 191.301 472.958 191.621 472.845L191.455 472.373C192.097 472.147 192.739 471.922 193.379 471.701L193.543 472.173C194.182 471.952 194.821 471.733 195.459 471.517L195.298 471.043C195.944 470.824 196.589 470.607 197.233 470.393L197.391 470.868C198.035 470.654 198.678 470.442 199.32 470.233L199.165 469.757C199.811 469.547 200.456 469.339 201.099 469.134L201.251 469.61C201.9 469.403 202.548 469.199 203.194 468.997L203.045 468.52C203.693 468.317 204.339 468.118 204.984 467.921L205.13 468.399C205.781 468.2 206.431 468.004 207.08 467.81L206.937 467.331C207.589 467.136 208.24 466.944 208.889 466.755L209.029 467.235C209.68 467.045 210.329 466.858 210.977 466.674L210.84 466.193C211.497 466.006 212.152 465.822 212.806 465.641L212.939 466.122C213.592 465.941 214.243 465.763 214.892 465.587L214.761 465.105C215.421 464.926 216.078 464.751 216.734 464.578L216.861 465.062C217.518 464.889 218.173 464.719 218.826 464.551L218.702 464.067C219.361 463.898 220.018 463.733 220.673 463.57L220.793 464.055C221.455 463.891 222.115 463.729 222.772 463.57L222.655 463.084C223.314 462.926 223.97 462.77 224.624 462.617L224.737 463.104C225.404 462.948 226.068 462.796 226.729 462.646L226.619 462.159C227.282 462.009 227.942 461.862 228.6 461.719L228.706 462.208C229.373 462.062 230.036 461.92 230.697 461.782L230.594 461.292C231.261 461.152 231.926 461.015 232.587 460.882L232.686 461.372C233.352 461.238 234.016 461.107 234.676 460.979L234.581 460.488C235.252 460.358 235.921 460.232 236.586 460.109L236.676 460.6C237.343 460.477 238.006 460.358 238.666 460.241L238.579 459.749C239.255 459.63 239.927 459.515 240.595 459.403L240.678 459.896C241.345 459.785 242.008 459.677 242.668 459.573L242.59 459.079C243.269 458.972 243.945 458.869 244.616 458.77L244.69 459.264C245.36 459.165 246.026 459.07 246.687 458.979L246.619 458.483C247.3 458.389 247.977 458.299 248.649 458.213L248.712 458.709C249.385 458.624 250.052 458.542 250.715 458.464L250.657 457.968C251.341 457.888 252.019 457.812 252.692 457.741L252.744 458.238C253.419 458.167 254.088 458.1 254.751 458.038L254.704 457.54C255.39 457.476 256.07 457.416 256.745 457.361L256.785 457.859C257.46 457.804 258.13 457.754 258.793 457.708L258.758 457.21C259.447 457.162 260.13 457.12 260.806 457.083L260.833 457.582C261.511 457.545 262.182 457.513 262.846 457.486L262.826 456.987C263.515 456.959 264.197 456.937 264.872 456.92L264.884 457.42C265.566 457.403 266.24 457.392 266.906 457.387L266.902 456.887C267.589 456.881 268.267 456.882 268.937 456.888L268.932 457.388C269.618 457.395 270.296 457.408 270.963 457.428L270.978 456.928C271.66 456.949 272.332 456.975 272.994 457.009L272.969 457.508C273.659 457.543 274.337 457.586 275.004 457.635L275.041 457.137C275.729 457.188 276.405 457.247 277.069 457.314L277.019 457.811C277.696 457.88 278.359 457.956 279.01 458.041L279.074 457.545C279.765 457.635 280.441 457.734 281.102 457.842L281.021 458.335C281.701 458.446 282.364 458.567 283.009 458.698L283.108 458.208C283.787 458.346 284.448 458.494 285.089 458.653L284.969 459.139C285.633 459.303 286.276 459.48 286.897 459.668L287.042 459.189C287.71 459.391 288.353 459.607 288.971 459.835L288.798 460.304C289.445 460.544 290.062 460.797 290.651 461.065L290.858 460.61C291.496 460.901 292.101 461.209 292.672 461.534L292.424 461.969C293.018 462.307 293.572 462.664 294.086 463.038L294.381 462.634C294.946 463.045 295.465 463.478 295.938 463.934L295.59 464.294C296.074 464.76 296.504 465.249 296.88 465.76L297.283 465.463Z" stroke="white" stroke-dasharray="2 2"/>
<path d="M2153.49 886.112C2155.41 883.16 2159.94 883.958 2160.73 887.39L2165.19 906.556C2165.53 908.01 2166.65 909.154 2168.09 909.525L2187.41 914.481C2190.89 915.374 2191.52 920.048 2188.4 921.829L2171.47 931.494C2170.14 932.254 2169.36 933.707 2169.46 935.237L2170.76 954.522C2171 958.065 2166.85 960.139 2164.16 957.82L2148.97 944.721C2147.85 943.763 2146.31 943.49 2144.94 944.01L2126.18 951.124C2122.86 952.384 2119.67 949.014 2121.1 945.766L2128.92 928.089C2129.54 926.687 2129.31 925.054 2128.32 923.885L2115.71 909.012C2113.39 906.271 2115.58 902.094 2119.15 902.445L2139 904.396C2140.49 904.541 2141.93 903.849 2142.74 902.598L2153.49 886.112Z" fill="white"/>
<circle cx="1236.23" cy="1031.44" r="31.5568" transform="rotate(39.7309 1236.23 1031.44)" fill="white"/>
<path d="M1285.89 1047.41C1286.02 1048.13 1286.04 1048.81 1285.94 1049.46L1285.44 1049.39C1285.4 1049.69 1285.32 1049.99 1285.21 1050.28C1285.11 1050.58 1284.97 1050.85 1284.81 1051.12L1285.23 1051.38C1284.89 1051.94 1284.43 1052.45 1283.87 1052.91L1283.56 1052.52C1283.09 1052.9 1282.55 1053.25 1281.92 1053.56L1282.14 1054.01C1281.56 1054.3 1280.92 1054.55 1280.23 1054.78L1280.08 1054.3C1279.47 1054.5 1278.83 1054.67 1278.13 1054.82L1278.24 1055.31C1277.6 1055.45 1276.92 1055.56 1276.21 1055.66L1276.15 1055.17C1275.5 1055.25 1274.82 1055.33 1274.12 1055.38L1274.16 1055.88C1273.5 1055.93 1272.81 1055.97 1272.11 1055.99L1272.09 1055.49C1271.43 1055.51 1270.75 1055.52 1270.05 1055.51L1270.05 1056.01C1269.38 1056.01 1268.69 1055.99 1267.99 1055.96L1268.01 1055.46C1267.34 1055.43 1266.66 1055.39 1265.97 1055.34L1265.93 1055.84C1265.26 1055.79 1264.58 1055.74 1263.88 1055.67L1263.93 1055.17C1263.26 1055.11 1262.58 1055.03 1261.89 1054.95L1261.83 1055.44C1261.16 1055.36 1260.48 1055.27 1259.79 1055.18L1259.86 1054.68C1259.19 1054.59 1258.52 1054.48 1257.83 1054.37L1257.75 1054.87C1257.09 1054.76 1256.41 1054.64 1255.73 1054.52L1255.81 1054.02C1255.15 1053.9 1254.48 1053.78 1253.8 1053.64L1253.7 1054.13C1253.04 1054 1252.36 1053.86 1251.69 1053.71L1251.79 1053.23C1251.13 1053.08 1250.46 1052.93 1249.79 1052.78L1249.68 1053.26C1249.01 1053.11 1248.34 1052.95 1247.67 1052.78L1247.79 1052.3C1247.13 1052.14 1246.47 1051.97 1245.8 1051.79L1245.67 1052.28C1245.01 1052.1 1244.35 1051.92 1243.68 1051.74L1243.82 1051.26C1243.16 1051.08 1242.51 1050.89 1241.85 1050.7L1241.71 1051.18C1241.05 1050.99 1240.39 1050.79 1239.73 1050.59L1239.88 1050.11C1239.23 1049.91 1238.57 1049.71 1237.92 1049.5L1237.77 1049.98C1237.11 1049.77 1236.46 1049.55 1235.81 1049.34L1235.96 1048.86C1235.32 1048.65 1234.67 1048.43 1234.02 1048.2L1233.86 1048.67C1233.21 1048.45 1232.56 1048.22 1231.92 1047.99L1232.08 1047.52C1231.76 1047.4 1231.44 1047.29 1231.12 1047.17C1230.79 1047.05 1230.47 1046.93 1230.15 1046.81L1229.97 1047.28C1229.33 1047.04 1228.69 1046.79 1228.05 1046.55L1228.23 1046.08C1227.59 1045.83 1226.95 1045.58 1226.32 1045.33L1226.14 1045.79C1225.49 1045.53 1224.86 1045.27 1224.23 1045.01L1224.42 1044.55C1223.78 1044.29 1223.15 1044.02 1222.53 1043.75L1222.33 1044.21C1221.69 1043.94 1221.07 1043.66 1220.44 1043.38L1220.65 1042.93C1220.02 1042.65 1219.4 1042.36 1218.78 1042.08L1218.57 1042.53C1217.94 1042.24 1217.32 1041.95 1216.71 1041.66L1216.92 1041.21C1216.3 1040.91 1215.68 1040.61 1215.08 1040.31L1214.85 1040.75C1214.23 1040.45 1213.62 1040.14 1213.01 1039.83L1213.24 1039.38C1212.63 1039.06 1212.02 1038.75 1211.42 1038.43L1211.19 1038.87C1210.58 1038.54 1209.97 1038.21 1209.38 1037.88L1209.62 1037.45C1209.02 1037.11 1208.42 1036.78 1207.84 1036.44L1207.59 1036.87C1206.99 1036.52 1206.39 1036.17 1205.81 1035.83L1206.07 1035.4C1205.48 1035.04 1204.9 1034.68 1204.33 1034.32L1204.06 1034.75C1203.47 1034.38 1202.89 1034 1202.33 1033.63L1202.6 1033.22C1202.02 1032.83 1201.46 1032.45 1200.91 1032.07L1200.62 1032.48C1200.05 1032.08 1199.49 1031.68 1198.94 1031.29L1199.24 1030.88C1198.67 1030.47 1198.13 1030.06 1197.6 1029.65L1197.3 1030.04C1196.74 1029.61 1196.21 1029.18 1195.69 1028.75L1196.01 1028.37C1195.47 1027.92 1194.96 1027.48 1194.47 1027.04L1194.13 1027.41C1193.61 1026.93 1193.11 1026.47 1192.64 1026L1192.99 1025.64C1192.49 1025.15 1192.02 1024.66 1191.58 1024.17L1191.21 1024.5C1190.74 1023.97 1190.3 1023.45 1189.9 1022.93L1190.29 1022.62C1189.86 1022.06 1189.47 1021.51 1189.14 1020.97L1188.72 1021.23C1188.33 1020.61 1188.01 1020.01 1187.76 1019.41L1188.22 1019.22C1187.94 1018.57 1187.75 1017.95 1187.64 1017.36L1187.14 1017.45C1187.01 1016.74 1187 1016.06 1187.1 1015.41L1187.59 1015.48C1187.64 1015.17 1187.71 1014.87 1187.82 1014.58C1187.93 1014.29 1188.06 1014.01 1188.23 1013.75L1187.8 1013.49C1188.14 1012.93 1188.6 1012.42 1189.16 1011.96L1189.48 1012.34C1189.94 1011.96 1190.49 1011.62 1191.12 1011.3L1190.89 1010.86C1191.47 1010.57 1192.11 1010.31 1192.8 1010.09L1192.96 1010.56C1193.56 1010.37 1194.21 1010.2 1194.9 1010.05L1194.8 1009.56C1195.44 1009.42 1196.11 1009.3 1196.82 1009.21L1196.89 1009.7C1197.54 1009.61 1198.21 1009.54 1198.92 1009.49L1198.88 1008.99C1199.54 1008.94 1200.22 1008.9 1200.93 1008.88L1200.94 1009.38C1201.6 1009.36 1202.28 1009.35 1202.98 1009.36L1202.98 1008.86C1203.65 1008.86 1204.34 1008.88 1205.04 1008.91L1205.02 1009.41C1205.69 1009.44 1206.37 1009.48 1207.07 1009.53L1207.1 1009.03C1207.77 1009.07 1208.46 1009.13 1209.15 1009.2L1209.11 1009.7C1209.77 1009.76 1210.45 1009.84 1211.14 1009.92L1211.2 1009.42C1211.87 1009.5 1212.55 1009.59 1213.24 1009.69L1213.17 1010.19C1213.84 1010.28 1214.52 1010.39 1215.2 1010.5L1215.28 1010C1215.95 1010.11 1216.62 1010.23 1217.31 1010.35L1217.22 1010.84C1217.88 1010.96 1218.56 1011.09 1219.23 1011.23L1219.33 1010.74C1220 1010.87 1220.67 1011.01 1221.35 1011.15L1221.24 1011.64C1221.9 1011.79 1222.57 1011.93 1223.25 1012.09L1223.36 1011.6C1224.02 1011.76 1224.69 1011.92 1225.36 1012.08L1225.24 1012.57C1225.9 1012.73 1226.57 1012.9 1227.23 1013.08L1227.36 1012.59C1228.02 1012.77 1228.68 1012.94 1229.35 1013.13L1229.22 1013.61C1229.87 1013.79 1230.53 1013.98 1231.19 1014.17L1231.33 1013.69C1231.98 1013.88 1232.64 1014.08 1233.3 1014.28L1233.15 1014.76C1233.81 1014.96 1234.46 1015.16 1235.12 1015.37L1235.27 1014.89C1235.92 1015.1 1236.57 1015.31 1237.23 1015.53L1237.07 1016.01C1237.72 1016.22 1238.36 1016.44 1239.01 1016.67L1239.18 1016.19C1239.82 1016.42 1240.47 1016.65 1241.12 1016.88L1240.95 1017.35C1241.27 1017.46 1241.59 1017.58 1241.92 1017.7C1242.24 1017.82 1242.56 1017.94 1242.88 1018.06L1243.06 1017.59C1243.7 1017.83 1244.35 1018.07 1244.98 1018.32L1244.8 1018.79C1245.44 1019.04 1246.08 1019.29 1246.71 1019.54L1246.9 1019.08C1247.54 1019.33 1248.18 1019.59 1248.81 1019.86L1248.61 1020.32C1249.25 1020.58 1249.88 1020.85 1250.51 1021.12L1250.7 1020.66C1251.34 1020.93 1251.97 1021.21 1252.59 1021.48L1252.39 1021.94C1253.02 1022.22 1253.64 1022.5 1254.25 1022.79L1254.46 1022.33C1255.09 1022.62 1255.71 1022.92 1256.33 1023.21L1256.11 1023.66C1256.73 1023.96 1257.35 1024.26 1257.96 1024.56L1258.18 1024.11C1258.8 1024.42 1259.41 1024.73 1260.02 1025.04L1259.79 1025.49C1260.41 1025.8 1261.01 1026.12 1261.61 1026.44L1261.85 1026C1262.46 1026.33 1263.06 1026.65 1263.65 1026.98L1263.41 1027.42C1264.02 1027.76 1264.61 1028.09 1265.2 1028.43L1265.45 1028C1266.05 1028.34 1266.64 1028.69 1267.22 1029.04L1266.96 1029.47C1267.56 1029.83 1268.14 1030.19 1268.71 1030.54L1268.97 1030.12C1269.56 1030.49 1270.14 1030.86 1270.71 1031.24L1270.43 1031.65C1271.01 1032.04 1271.58 1032.42 1272.13 1032.8L1272.41 1032.39C1272.99 1032.79 1273.55 1033.19 1274.09 1033.58L1273.8 1033.99C1274.36 1034.4 1274.9 1034.81 1275.43 1035.22L1275.74 1034.82C1276.29 1035.26 1276.83 1035.69 1277.34 1036.11L1277.02 1036.5C1277.56 1036.95 1278.07 1037.39 1278.56 1037.83L1278.9 1037.46C1279.42 1037.93 1279.92 1038.4 1280.39 1038.87L1280.04 1039.22C1280.54 1039.72 1281.01 1040.21 1281.45 1040.7L1281.82 1040.36C1282.3 1040.9 1282.74 1041.42 1283.14 1041.94L1282.74 1042.25C1283.17 1042.81 1283.56 1043.36 1283.89 1043.9L1284.32 1043.63C1284.7 1044.25 1285.02 1044.86 1285.28 1045.45L1284.82 1045.65C1285.09 1046.3 1285.29 1046.92 1285.4 1047.51L1285.89 1047.41Z" stroke="white" stroke-dasharray="2 2"/>
<path d="M1299.43 1052.19C1299.64 1052.89 1299.71 1053.56 1299.65 1054.19L1299.15 1054.14C1299.12 1054.44 1299.06 1054.73 1298.96 1055.01C1298.86 1055.28 1298.72 1055.54 1298.55 1055.79L1298.96 1056.08C1298.6 1056.59 1298.11 1057.06 1297.5 1057.46L1297.22 1057.04C1296.74 1057.36 1296.17 1057.64 1295.5 1057.89L1295.68 1058.36C1295.09 1058.59 1294.44 1058.78 1293.73 1058.94L1293.61 1058.46C1293.01 1058.6 1292.36 1058.72 1291.67 1058.81L1291.74 1059.31C1291.1 1059.4 1290.43 1059.47 1289.72 1059.53L1289.68 1059.03C1289.04 1059.08 1288.37 1059.11 1287.67 1059.13L1287.69 1059.63C1287.03 1059.65 1286.35 1059.66 1285.65 1059.65L1285.66 1059.15C1285 1059.14 1284.33 1059.13 1283.64 1059.1L1283.62 1059.6C1282.96 1059.57 1282.28 1059.53 1281.59 1059.49L1281.63 1058.99C1280.97 1058.94 1280.3 1058.89 1279.61 1058.83L1279.57 1059.32C1278.91 1059.26 1278.24 1059.2 1277.55 1059.12L1277.6 1058.62C1276.95 1058.55 1276.28 1058.47 1275.6 1058.38L1275.53 1058.88C1274.87 1058.79 1274.2 1058.7 1273.52 1058.6L1273.59 1058.1C1272.93 1058.01 1272.26 1057.9 1271.58 1057.79L1271.5 1058.29C1270.84 1058.18 1270.18 1058.07 1269.5 1057.95L1269.59 1057.46C1268.93 1057.34 1268.27 1057.22 1267.6 1057.09L1267.51 1057.59C1266.85 1057.46 1266.18 1057.33 1265.51 1057.2L1265.61 1056.71C1264.95 1056.57 1264.29 1056.44 1263.62 1056.29L1263.51 1056.78C1262.86 1056.64 1262.2 1056.5 1261.54 1056.35L1261.64 1055.86C1260.99 1055.72 1260.33 1055.57 1259.67 1055.41L1259.56 1055.9C1258.9 1055.74 1258.24 1055.59 1257.58 1055.42L1257.69 1054.94C1257.04 1054.78 1256.39 1054.62 1255.73 1054.45L1255.61 1054.93C1254.96 1054.77 1254.3 1054.6 1253.64 1054.42L1253.77 1053.94C1253.12 1053.77 1252.46 1053.59 1251.8 1053.41L1251.67 1053.9C1251.03 1053.72 1250.37 1053.54 1249.72 1053.35L1249.85 1052.87C1249.21 1052.69 1248.56 1052.51 1247.91 1052.32L1247.77 1052.8C1247.12 1052.61 1246.47 1052.42 1245.81 1052.22L1245.95 1051.74C1245.31 1051.55 1244.67 1051.35 1244.02 1051.15L1243.87 1051.63C1243.23 1051.43 1242.58 1051.23 1241.93 1051.03L1242.08 1050.55C1241.44 1050.35 1240.79 1050.14 1240.15 1049.93L1239.99 1050.41C1239.35 1050.2 1238.71 1049.99 1238.07 1049.78L1238.22 1049.3C1237.58 1049.09 1236.94 1048.88 1236.29 1048.66L1236.13 1049.13C1235.5 1048.92 1234.86 1048.7 1234.22 1048.47L1234.38 1048C1233.74 1047.78 1233.1 1047.56 1232.46 1047.33L1232.3 1047.8C1231.66 1047.57 1231.02 1047.35 1230.39 1047.11L1230.56 1046.64C1230.24 1046.53 1229.92 1046.41 1229.6 1046.3C1229.28 1046.18 1228.96 1046.06 1228.64 1045.94L1228.47 1046.41C1227.83 1046.18 1227.2 1045.94 1226.57 1045.7L1226.75 1045.23C1226.11 1044.99 1225.48 1044.75 1224.85 1044.51L1224.67 1044.97C1224.04 1044.73 1223.41 1044.48 1222.78 1044.24L1222.96 1043.77C1222.33 1043.52 1221.7 1043.27 1221.07 1043.02L1220.89 1043.48C1220.26 1043.23 1219.63 1042.97 1219.01 1042.72L1219.2 1042.25C1218.57 1042 1217.94 1041.74 1217.32 1041.48L1217.13 1041.94C1216.5 1041.67 1215.88 1041.41 1215.26 1041.14L1215.45 1040.68C1214.83 1040.42 1214.21 1040.15 1213.6 1039.88L1213.4 1040.34C1212.77 1040.06 1212.15 1039.79 1211.53 1039.51L1211.74 1039.06C1211.12 1038.78 1210.5 1038.5 1209.89 1038.22L1209.68 1038.68C1209.06 1038.4 1208.45 1038.11 1207.84 1037.83L1208.05 1037.38C1207.44 1037.09 1206.82 1036.8 1206.21 1036.51L1206 1036.96C1205.38 1036.67 1204.77 1036.37 1204.17 1036.08L1204.39 1035.63C1203.78 1035.33 1203.17 1035.03 1202.57 1034.73L1202.35 1035.18C1201.74 1034.87 1201.13 1034.57 1200.53 1034.26L1200.76 1033.82C1200.15 1033.51 1199.55 1033.2 1198.96 1032.89L1198.73 1033.33C1198.13 1033.01 1197.53 1032.7 1196.94 1032.38L1197.18 1031.94C1196.57 1031.61 1195.98 1031.29 1195.39 1030.97L1195.15 1031.4C1194.55 1031.07 1193.96 1030.74 1193.37 1030.41L1193.62 1029.98C1193.03 1029.64 1192.44 1029.3 1191.87 1028.97L1191.62 1029.4C1191.03 1029.05 1190.44 1028.71 1189.87 1028.36L1190.13 1027.94C1189.54 1027.58 1188.97 1027.23 1188.4 1026.87L1188.14 1027.3C1187.55 1026.93 1186.98 1026.57 1186.42 1026.21L1186.69 1025.79C1186.11 1025.42 1185.55 1025.05 1185 1024.68L1184.72 1025.09C1184.15 1024.71 1183.59 1024.32 1183.05 1023.94L1183.33 1023.53C1182.77 1023.14 1182.22 1022.75 1181.7 1022.36L1181.4 1022.76C1180.84 1022.35 1180.3 1021.94 1179.78 1021.53L1180.09 1021.14C1179.54 1020.71 1179.02 1020.29 1178.51 1019.87L1178.19 1020.26C1177.66 1019.81 1177.14 1019.37 1176.65 1018.93L1176.99 1018.56C1176.47 1018.09 1175.98 1017.63 1175.52 1017.18L1175.17 1017.54C1174.67 1017.04 1174.2 1016.55 1173.77 1016.07L1174.14 1015.73C1173.68 1015.21 1173.26 1014.7 1172.89 1014.2L1172.49 1014.5C1172.05 1013.92 1171.68 1013.35 1171.37 1012.8L1171.81 1012.55C1171.47 1011.93 1171.21 1011.35 1171.05 1010.79L1170.57 1010.93C1170.36 1010.23 1170.29 1009.56 1170.35 1008.93L1170.85 1008.98C1170.88 1008.68 1170.94 1008.39 1171.04 1008.12C1171.14 1007.84 1171.28 1007.58 1171.45 1007.33L1171.04 1007.05C1171.4 1006.53 1171.89 1006.07 1172.5 1005.66L1172.78 1006.08C1173.26 1005.76 1173.83 1005.48 1174.5 1005.23L1174.32 1004.76C1174.91 1004.54 1175.56 1004.34 1176.27 1004.18L1176.39 1004.67C1176.99 1004.53 1177.64 1004.41 1178.33 1004.31L1178.26 1003.81C1178.9 1003.72 1179.57 1003.65 1180.28 1003.6L1180.32 1004.1C1180.96 1004.05 1181.63 1004.01 1182.33 1003.99L1182.31 1003.49C1182.97 1003.47 1183.65 1003.47 1184.35 1003.47L1184.34 1003.97C1185 1003.98 1185.67 1004 1186.36 1004.03L1186.38 1003.53C1187.04 1003.55 1187.72 1003.59 1188.41 1003.64L1188.37 1004.14C1189.03 1004.18 1189.7 1004.23 1190.39 1004.3L1190.43 1003.8C1191.09 1003.86 1191.76 1003.93 1192.45 1004L1192.4 1004.5C1193.05 1004.57 1193.72 1004.66 1194.4 1004.74L1194.47 1004.25C1195.13 1004.33 1195.8 1004.43 1196.48 1004.53L1196.41 1005.02C1197.07 1005.12 1197.74 1005.22 1198.42 1005.33L1198.5 1004.84C1199.16 1004.94 1199.82 1005.06 1200.5 1005.17L1200.41 1005.67C1201.07 1005.78 1201.73 1005.9 1202.4 1006.03L1202.49 1005.54C1203.15 1005.66 1203.82 1005.79 1204.49 1005.93L1204.39 1006.42C1205.05 1006.55 1205.71 1006.69 1206.38 1006.83L1206.48 1006.34C1207.14 1006.48 1207.8 1006.62 1208.46 1006.77L1208.35 1007.26C1209.01 1007.41 1209.67 1007.56 1210.33 1007.71L1210.44 1007.23C1211.1 1007.38 1211.76 1007.54 1212.42 1007.7L1212.31 1008.19C1212.96 1008.34 1213.61 1008.51 1214.27 1008.68L1214.39 1008.19C1215.04 1008.36 1215.7 1008.53 1216.36 1008.7L1216.23 1009.18C1216.88 1009.35 1217.54 1009.53 1218.2 1009.71L1218.33 1009.23C1218.97 1009.4 1219.63 1009.58 1220.28 1009.77L1220.14 1010.25C1220.79 1010.43 1221.44 1010.62 1222.09 1010.81L1222.23 1010.33C1222.88 1010.52 1223.53 1010.71 1224.19 1010.9L1224.05 1011.38C1224.69 1011.57 1225.33 1011.77 1225.98 1011.97L1226.13 1011.49C1226.77 1011.69 1227.42 1011.89 1228.07 1012.09L1227.92 1012.57C1228.56 1012.77 1229.21 1012.98 1229.85 1013.19L1230.01 1012.71C1230.65 1012.92 1231.29 1013.13 1231.93 1013.34L1231.78 1013.82C1232.42 1014.03 1233.06 1014.25 1233.71 1014.47L1233.87 1013.99C1234.5 1014.21 1235.14 1014.43 1235.78 1014.65L1235.62 1015.12C1236.26 1015.34 1236.9 1015.57 1237.54 1015.8L1237.7 1015.32C1238.34 1015.55 1238.98 1015.78 1239.61 1016.01L1239.44 1016.48C1239.76 1016.59 1240.08 1016.71 1240.4 1016.83C1240.72 1016.95 1241.04 1017.06 1241.36 1017.18L1241.53 1016.71C1242.17 1016.95 1242.8 1017.18 1243.43 1017.42L1243.25 1017.89C1243.89 1018.13 1244.52 1018.37 1245.15 1018.62L1245.33 1018.15C1245.96 1018.39 1246.59 1018.64 1247.22 1018.89L1247.04 1019.35C1247.67 1019.6 1248.3 1019.85 1248.93 1020.1L1249.11 1019.64C1249.74 1019.9 1250.37 1020.15 1250.99 1020.41L1250.8 1020.87C1251.43 1021.13 1252.06 1021.39 1252.68 1021.65L1252.87 1021.19C1253.5 1021.45 1254.12 1021.71 1254.74 1021.98L1254.55 1022.44C1255.17 1022.71 1255.79 1022.97 1256.4 1023.24L1256.6 1022.78C1257.23 1023.06 1257.85 1023.33 1258.47 1023.61L1258.26 1024.07C1258.88 1024.34 1259.5 1024.62 1260.11 1024.9L1260.32 1024.44C1260.94 1024.73 1261.55 1025.01 1262.16 1025.29L1261.95 1025.75C1262.56 1026.04 1263.18 1026.33 1263.79 1026.62L1264 1026.16C1264.62 1026.46 1265.23 1026.75 1265.83 1027.05L1265.61 1027.49C1266.22 1027.79 1266.83 1028.09 1267.43 1028.39L1267.65 1027.94C1268.26 1028.25 1268.87 1028.56 1269.47 1028.86L1269.24 1029.31C1269.85 1029.62 1270.45 1029.93 1271.04 1030.24L1271.27 1029.8C1271.87 1030.11 1272.47 1030.43 1273.06 1030.74L1272.82 1031.18C1273.43 1031.51 1274.02 1031.83 1274.61 1032.16L1274.85 1031.72C1275.45 1032.05 1276.04 1032.38 1276.63 1032.71L1276.38 1033.15C1276.97 1033.48 1277.56 1033.82 1278.13 1034.16L1278.38 1033.72C1278.97 1034.07 1279.56 1034.41 1280.13 1034.76L1279.87 1035.19C1280.46 1035.54 1281.03 1035.9 1281.6 1036.25L1281.86 1035.82C1282.45 1036.19 1283.02 1036.55 1283.58 1036.91L1283.31 1037.33C1283.89 1037.71 1284.45 1038.08 1285 1038.45L1285.28 1038.03C1285.85 1038.42 1286.41 1038.8 1286.95 1039.18L1286.67 1039.59C1287.23 1039.99 1287.78 1040.38 1288.3 1040.77L1288.6 1040.37C1289.16 1040.78 1289.7 1041.19 1290.22 1041.59L1289.91 1041.99C1290.46 1042.41 1290.98 1042.83 1291.49 1043.25L1291.8 1042.86C1292.34 1043.31 1292.86 1043.75 1293.35 1044.19L1293.01 1044.56C1293.53 1045.03 1294.02 1045.49 1294.48 1045.94L1294.83 1045.59C1295.33 1046.08 1295.8 1046.57 1296.23 1047.06L1295.85 1047.39C1296.32 1047.91 1296.74 1048.42 1297.11 1048.92L1297.51 1048.62C1297.95 1049.21 1298.32 1049.78 1298.63 1050.33L1298.19 1050.57C1298.53 1051.19 1298.79 1051.78 1298.95 1052.33L1299.43 1052.19Z" stroke="white" stroke-dasharray="2 2"/>
<path d="M1030.05 82.0958C1031.97 79.1433 1036.5 79.9412 1037.3 83.3737L1038.34 87.8548C1038.68 89.3082 1039.8 90.4527 1041.24 90.8235L1045.6 91.9427C1049.08 92.8357 1049.71 97.5096 1046.59 99.2911L1042.92 101.39C1041.58 102.15 1040.8 103.603 1040.91 105.133L1041.2 109.415C1041.44 112.958 1037.28 115.033 1034.59 112.714L1031.01 109.624C1029.9 108.665 1028.35 108.392 1026.98 108.913L1022.55 110.591C1019.23 111.85 1016.04 108.481 1017.48 105.233L1019.21 101.308C1019.83 99.9057 1019.6 98.2728 1018.61 97.1035L1015.87 93.874C1013.55 91.1324 1015.74 86.9555 1019.31 87.3069L1023.8 87.7474C1025.28 87.8933 1026.72 87.2005 1027.54 85.9503L1030.05 82.0958Z" fill="white"/>
<path d="M996.128 47.0958C998.052 44.1433 1002.58 44.9412 1003.38 48.3737L1004.42 52.8548C1004.76 54.3082 1005.87 55.4527 1007.32 55.8235L1011.68 56.9427C1015.16 57.8357 1015.79 62.5096 1012.67 64.2911L1008.99 66.3897C1007.66 67.1496 1006.88 68.6034 1006.99 70.1328L1007.28 74.4153C1007.51 77.9585 1003.36 80.0328 1000.67 77.7137L997.089 74.6235C995.977 73.665 994.43 73.3922 993.058 73.9128L988.634 75.591C985.314 76.8505 982.121 73.4809 983.557 70.2331L985.293 66.3076C985.913 64.9057 985.677 63.2728 984.686 62.1035L981.949 58.874C979.626 56.1324 981.815 51.9555 985.392 52.3069L989.874 52.7474C991.359 52.8933 992.802 52.2005 993.617 50.9503L996.128 47.0958Z" fill="white"/>
</g>
<defs>
<clipPath id="clip0_9_112">
<rect width="2232" height="1282" fill="white"/>
</clipPath>
</defs>
</svg>
